<?xml version="1.0" standalone="no"?>
<!DOCTYPE svg PUBLIC "-//W3C//DTD SVG 20010904//EN"
 "http://www.w3.org/TR/2001/REC-SVG-20010904/DTD/svg10.dtd">
<svg version="1.0" xmlns="http://www.w3.org/2000/svg"
 width="752.000000pt" height="752.000000pt" viewBox="0 0 752.000000 752.000000"
 preserveAspectRatio="xMidYMid meet">

<g transform="translate(0.000000,752.000000) scale(0.100000,-0.100000)"
fill="#000000" stroke="none">
<path d="M3175 5910 c-105 -15 -203 -90 -249 -189 -21 -45 -21 -54 -21 -666 0
-614 0 -620 22 -667 11 -25 40 -67 63 -91 l41 -45 -178 -4 c-165 -3 -182 -5
-228 -28 -64 -31 -124 -92 -156 -155 l-24 -50 0 -1090 0 -1090 27 -50 c14 -27
43 -66 63 -85 l36 -35 -293 -5 c-276 -5 -293 -6 -296 -24 -2 -10 2 -22 10 -27
17 -11 3519 -11 3536 0 8 5 12 17 10 27 -3 18 -20 19 -296 24 l-293 5 36 35
c20 19 49 58 63 85 l27 50 0 1090 0 1090 -24 50 c-32 63 -92 124 -156 155 -46
23 -63 25 -228 28 l-178 4 41 45 c23 24 52 66 63 91 22 47 22 53 22 667 0 614
0 620 -22 667 -47 103 -140 172 -256 189 -73 10 -1089 10 -1162 -1z m275 -356
c0 -291 5 -344 30 -344 4 0 70 41 146 91 l137 91 126 -86 c70 -47 134 -88 143
-91 34 -13 38 26 38 340 l0 307 153 -4 c133 -3 157 -6 193 -25 54 -29 117
-101 132 -151 17 -56 17 -1198 0 -1254 -15 -50 -78 -122 -132 -151 l-41 -22
-615 0 -615 0 -41 22 c-54 29 -117 101 -132 151 -17 56 -17 1198 0 1254 14 46
77 122 122 145 54 28 77 31 219 32 l137 1 0 -306z m560 26 c0 -154 -2 -280 -5
-280 -3 0 -56 34 -118 75 -63 41 -119 75 -126 75 -6 0 -59 -32 -117 -70 -57
-39 -111 -73 -119 -77 -13 -4 -15 33 -15 276 l0 281 250 0 250 0 0 -280z
m-650 -1834 c0 -244 3 -451 6 -460 3 -9 12 -16 20 -16 8 0 95 41 194 90 l180
90 180 -90 c99 -49 186 -90 194 -90 8 0 17 7 20 16 3 9 6 216 6 460 l0 444
333 0 333 0 52 -26 c56 -28 90 -63 125 -128 l22 -41 0 -1060 c0 -1176 4 -1104
-68 -1183 -65 -70 -104 -85 -229 -90 l-108 -4 0 505 c0 469 -1 505 -17 511
-41 16 -43 -4 -43 -521 l0 -493 -937 2 -938 3 -40 22 c-54 28 -119 100 -136
149 -12 32 -14 222 -14 1099 l0 1060 22 41 c35 65 69 100 125 128 l52 26 333
0 333 0 0 -444z m740 24 c0 -231 -2 -420 -5 -420 -3 0 -79 37 -170 82 l-165
83 -165 -83 c-91 -45 -167 -82 -170 -82 -3 0 -5 189 -5 420 l0 420 340 0 340
0 0 -420z"/>
<path d="M3283 4894 c-22 -9 -15 -43 10 -49 12 -3 85 -4 162 -3 l140 3 0 25 0
25 -150 2 c-82 1 -156 -1 -162 -3z"/>
<path d="M3273 4604 c-13 -35 23 -44 166 -44 75 0 142 4 149 9 8 5 12 17 10
27 -3 18 -16 19 -161 22 -139 2 -158 1 -164 -14z"/>
<path d="M4571 3121 c-6 -11 -11 -57 -11 -103 0 -91 14 -126 44 -115 14 6 16
21 14 119 -3 96 -5 113 -20 116 -9 2 -21 -6 -27 -17z"/>
<path d="M2817 2393 c-15 -14 -6 -41 16 -47 12 -3 142 -6 288 -6 278 0 308 4
293 43 -6 16 -31 17 -298 17 -161 0 -296 -3 -299 -7z"/>
<path d="M2817 2023 c-15 -14 -6 -41 16 -47 12 -3 142 -6 288 -6 278 0 308 4
293 43 -6 16 -31 17 -298 17 -161 0 -296 -3 -299 -7z"/>
</g>
</svg>
