<?xml version="1.0" encoding="UTF-8"?>
<svg width="752pt" height="752pt" version="1.1" viewBox="0 0 752 752" xmlns="http://www.w3.org/2000/svg">
 <g>
  <path d="m376 162.89c-117.7 0-213.11 95.41-213.11 213.11 0 117.7 95.414 213.11 213.11 213.11 117.7 0 213.11-95.406 213.11-213.11-0.003907-117.7-95.41-213.11-213.12-213.11zm0 421.49c-114.9 0-208.38-93.477-208.38-208.38 0-114.9 93.477-208.38 208.38-208.38s208.38 93.477 208.38 208.38c0.003906 114.9-93.473 208.38-208.38 208.38z"/>
  <path d="m542.29 471.4c16.195-28.125 25.516-60.684 25.516-95.398 0-34.672-9.2969-67.195-25.453-95.293-0.082031-0.30859-0.21484-0.60547-0.42188-0.875-0.046875-0.0625-0.11328-0.089843-0.16016-0.14062-8.2891-14.203-18.305-27.27-29.824-38.855-0.042968-0.070313-0.058594-0.14844-0.10547-0.21484-0.20313-0.27344-0.46875-0.48438-0.75-0.64062-11.547-11.461-24.547-21.434-38.672-29.688-0.22266-0.22656-0.49219-0.41016-0.80078-0.53906-0.070312-0.027344-0.14062-0.019531-0.21484-0.039062-28.125-16.195-60.684-25.516-95.398-25.516-34.672 0-67.195 9.2969-95.293 25.453-0.30859 0.074218-0.60547 0.21484-0.875 0.42188-0.0625 0.046875-0.089843 0.11328-0.14062 0.16406-14.203 8.2812-27.266 18.301-38.852 29.816-0.070313 0.042968-0.15234 0.058593-0.21875 0.10547-0.28125 0.20703-0.48828 0.47266-0.64062 0.75781-11.461 11.543-21.434 24.539-29.684 38.668-0.22656 0.22266-0.41797 0.48828-0.54297 0.80078-0.027344 0.070312-0.019531 0.14062-0.039062 0.21484-16.195 28.121-25.516 60.688-25.516 95.398 0 34.672 9.2969 67.195 25.453 95.293 0.082031 0.30859 0.21484 0.60547 0.42188 0.875 0.042969 0.058593 0.10938 0.074219 0.15625 0.125 8.2891 14.207 18.309 27.281 29.832 38.871 0.042969 0.070313 0.058594 0.14844 0.10547 0.21484 0.16406 0.22266 0.39453 0.35938 0.60547 0.49609 11.574 11.523 24.633 21.543 38.816 29.832 0.22266 0.22266 0.48828 0.41016 0.80078 0.53516 0.070313 0.03125 0.14844 0.023437 0.21875 0.046874 28.121 16.199 60.672 25.512 95.391 25.512 34.891 0 67.594-9.4062 95.809-25.754 0.11328-0.066406 0.25-0.042969 0.35547-0.125 0.0625-0.046875 0.089844-0.11328 0.13672-0.16016 14.223-8.2969 27.309-18.332 38.906-29.875 0.050781-0.03125 0.11328-0.019531 0.16406-0.058594 0.28125-0.20703 0.48828-0.47266 0.64062-0.75781 11.59-11.664 21.652-24.82 29.949-39.133 0.085937-0.125 0.22266-0.19531 0.28125-0.33594 0.027343-0.058593 0.019531-0.13672 0.042968-0.20312zm-32.184 34.832-49.453-65.277 75.914 30.902c-7.4766 12.477-16.379 24-26.461 34.375zm-38.84 30.672-55.578-71.523-5.6445-45.027 42.027 17.105 54.676 72.164c-10.668 10.445-22.574 19.609-35.48 27.281zm-186.97 2.043 34.145-83.895 36.172-27.402 6.1992 44.949-35.195 83.516c-14.566-4.082-28.414-9.875-41.32-17.168zm-38.523-28.844 65.273-49.445-30.895 75.906c-12.48-7.4766-24-16.379-34.379-26.461zm-30.668-38.84 71.523-55.578 45.023-5.6445-17.105 42.031-72.164 54.664c-10.438-10.66-19.609-22.566-27.277-35.473zm-19.031-44.227 81.348-10.195-64.703 50.277c-7.0273-12.539-12.633-25.977-16.645-40.082zm-7.082-48.977 89.766-12.383 41.816 17.625-35.832 27.848-89.973 11.281c-3.6367-14.211-5.6094-29.082-5.7773-44.371zm5.6367-47.84 75.59 31.859-81.203 11.199c0.21094-14.832 2.1289-29.246 5.6133-43.059zm18.43-45.926 83.895 34.145 27.402 36.168-44.949 6.1992-83.516-35.195c4.0859-14.562 9.875-28.41 17.168-41.316zm28.848-38.523 49.453 65.277-75.914-30.895c7.4766-12.484 16.379-24.004 26.461-34.383zm38.832-30.668 55.586 71.523 5.6445 45.023-42.031-17.105-54.664-72.168c10.664-10.434 22.566-19.605 35.465-27.273zm186.98-2.0469-34.145 83.895-36.172 27.402-6.1992-44.949 35.195-83.516c14.566 4.0859 28.418 9.875 41.32 17.168zm38.52 28.844-65.273 49.449 30.895-75.914c12.48 7.4844 24.004 16.387 34.379 26.465zm30.672 38.836-71.523 55.586-45.027 5.6445 17.105-42.031 72.16-54.672c10.449 10.672 19.613 22.574 27.285 35.473zm19.031 44.234-81.352 10.199 64.699-50.285c7.0352 12.543 12.641 25.977 16.652 40.086zm7.0742 48.977-89.762 12.383-41.816-17.625 35.828-27.848 89.973-11.281c3.6445 14.215 5.6172 29.078 5.7773 44.371zm-5.6289 47.844-75.59-31.863 81.203-11.199c-0.21094 14.832-2.1289 29.25-5.6133 43.062zm-140.06-48.117c-0.10937-2.0703-0.33203-4.1055-0.73828-6.082l5.5586 2.3398zm-15.551 12.09c-1.0391 0.80469-1.2227 2.2891-0.42188 3.3203 0.46875 0.60156 1.1641 0.91406 1.875 0.91406 0.50781 0 1.0195-0.16016 1.4531-0.49609l7.1367-5.5469c-2.3477 10.59-9.2734 19.469-18.598 24.441l-12.781-5.1992c-1.2031-0.49609-2.5938 0.089844-3.082 1.2969-0.49219 1.2109 0.089844 2.5938 1.2969 3.082l8.3984 3.418c-3.4844 1.1016-7.1992 1.7031-11.043 1.7031-7.1523 0-13.805-2.082-19.453-5.6367l-1.8789-13.629c-0.17969-1.293-1.3516-2.2148-2.668-2.0234-1.293 0.17969-2.2031 1.375-2.0234 2.668l1.2266 8.8984c-7.3008-6.707-11.906-16.297-11.906-26.973 0-0.44141 0.050781-0.87109 0.066407-1.3086l10.867-8.4492c1.0312-0.80469 1.2227-2.293 0.41797-3.3242-0.80078-1.0273-2.2891-1.2227-3.3242-0.41797l-7.1367 5.5469c2.3477-10.59 9.2734-19.469 18.598-24.445l12.781 5.1992c0.29297 0.11719 0.59375 0.17578 0.89063 0.17578 0.93359 0 1.8203-0.55859 2.1914-1.4766 0.49219-1.2109-0.089844-2.5898-1.2969-3.082l-8.3984-3.418c3.4844-1.1016 7.1992-1.7031 11.047-1.7031 7.1523 0 13.805 2.082 19.449 5.6367l1.8789 13.629c0.16016 1.1836 1.1797 2.0469 2.3438 2.0469 0.097657 0 0.21484-0.003906 0.32031-0.023437 1.293-0.17969 2.2031-1.375 2.0234-2.668l-1.2266-8.8984c7.3047 6.7109 11.91 16.309 11.91 26.98 0 0.44141-0.050781 0.87109-0.066406 1.3086zm13.09-24.043c-0.38672-1.0547-0.81641-2.0898-1.2852-3.1016l4.7305-11.621 39.746-4.9883-31.629 24.582zm-4.2266-8.4336c-1.1289-1.7188-2.4023-3.3281-3.7617-4.8555l6.043-0.75781zm-8.082-9.0859c-0.87109-0.72266-1.7773-1.3984-2.7031-2.0508l-1.7109-12.422 31.938-24.191-15.102 37.105zm-7.9102-5.1719c-1.8125-0.91797-3.6992-1.7148-5.6602-2.3633l4.832-3.6602zm-11.578-3.8203c-1.1016-0.1875-2.2109-0.35547-3.3438-0.46094l-7.6875-9.8867 15.559-36.914 5.4688 39.68zm-9.3906-0.52734c-2.0703 0.11328-4.1055 0.33203-6.0859 0.73828l2.3438-5.5547zm-11.953 2.4648c-1.0547 0.38672-2.0898 0.80859-3.1016 1.2852l-11.621-4.7305-4.9805-39.754 24.578 31.629zm-8.4336 4.2227c-1.7188 1.1289-3.3281 2.3945-4.8555 3.7617l-0.75781-6.0469zm-9.0859 8.0859c-0.72266 0.86719-1.3984 1.7773-2.0508 2.7031l-12.418 1.7109-24.191-31.934 37.105 15.102zm-5.1719 7.9062c-0.91797 1.8203-1.7148 3.7031-2.3633 5.6602l-3.6602-4.832zm-3.8203 11.578c-0.1875 1.1016-0.35547 2.2109-0.46094 3.3438l-9.8867 7.6875-36.914-15.559 39.68-5.4727zm-0.52734 9.3945c0.11328 2.0703 0.33203 4.1055 0.73828 6.082l-5.5547-2.3398zm2.4648 11.953c0.38672 1.0547 0.80859 2.0898 1.2852 3.1016l-4.7305 11.621-39.754 4.9883 31.629-24.582zm4.2227 8.4336c1.1289 1.7188 2.3945 3.3281 3.7617 4.8555l-6.0469 0.75781zm8.0859 9.082c0.87109 0.72266 1.7773 1.3984 2.7031 2.0547l1.7148 12.422-31.938 24.188 15.102-37.105zm7.9062 5.1719c1.8203 0.91797 3.7031 1.7188 5.6641 2.3672l-4.832 3.6562zm11.582 3.8164c1.1016 0.19531 2.2109 0.35938 3.3438 0.46484l7.6875 9.8867-15.559 36.914-5.4727-39.68zm9.3906 0.53125c2.0703-0.10937 4.1055-0.33203 6.0859-0.73828l-2.3438 5.5586zm11.953-2.4609c1.0547-0.38672 2.0898-0.81641 3.1016-1.2852l11.621 4.7305 4.9805 39.746-24.578-31.629zm8.4336-4.2266c1.7188-1.1289 3.3281-2.3945 4.8555-3.7617l0.75781 6.043zm9.082-8.082c0.72266-0.86719 1.3984-1.7773 2.0547-2.7031l12.418-1.7109 24.191 31.934-37.105-15.098zm5.1719-7.9102c0.91797-1.8125 1.7188-3.6992 2.3633-5.6602l3.6562 4.8359zm3.8164-11.574c0.19531-1.1016 0.35938-2.2148 0.46484-3.3477l9.8867-7.6875 36.914 15.559-39.688 5.4688zm-26.863-112.85-11.199-81.203c14.828 0.21484 29.242 2.1328 43.055 5.6211zm-3.6016 8.543-17.621 41.816-27.848-35.832-11.281-89.973c14.207-3.6406 29.078-5.6211 44.371-5.7812zm-51.156-1.3359-50.289-64.707c12.547-7.0273 25.98-12.637 40.082-16.645zm26.91 204.37 11.199 81.203c-14.828-0.21484-29.242-2.1328-43.055-5.6211zm3.5977-8.543 17.621-41.816 27.848 35.828 11.281 89.973c-14.207 3.6484-29.078 5.6211-44.371 5.7812zm51.156 1.3359 50.285 64.707c-12.539 7.0273-25.977 12.641-40.082 16.652zm38.215-41.023-27.398-36.168 44.941-6.1992 83.52 35.195c-4.082 14.566-9.875 28.414-17.168 41.32z"/>
  <path d="m367.94 403.47c0 3.9492-5.9219 3.9492-5.9219 0 0-3.9453 5.9219-3.9453 5.9219 0"/>
  <path d="m397.24 399.28c0 3.9492-5.9219 3.9492-5.9219 0 0-3.9453 5.9219-3.9453 5.9219 0"/>
  <path d="m408.27 371.82c0 3.9453-5.918 3.9453-5.918 0 0-3.9492 5.918-3.9492 5.918 0"/>
  <path d="m389.98 348.54c0 3.9453-5.918 3.9453-5.918 0 0-3.9492 5.918-3.9492 5.918 0"/>
  <path d="m360.69 352.71c0 3.9453-5.9219 3.9453-5.9219 0 0-3.9453 5.9219-3.9453 5.9219 0"/>
  <path d="m349.66 380.19c0 3.9453-5.918 3.9453-5.918 0s5.918-3.9453 5.918 0"/>
  <path d="m376 390.21c-7.832 0-14.207-6.375-14.207-14.207s6.375-14.207 14.207-14.207 14.207 6.375 14.207 14.207c0 7.8359-6.3711 14.207-14.207 14.207zm0-23.676c-5.2227 0-9.4727 4.2461-9.4727 9.4727 0 5.2227 4.2461 9.4727 9.4727 9.4727 5.2227 0 9.4727-4.2461 9.4727-9.4727 0-5.2266-4.2461-9.4727-9.4727-9.4727z"/>
 </g>
</svg>
