<?xml version="1.0" encoding="UTF-8"?>
<svg width="752pt" height="752pt" version="1.1" viewBox="0 0 752 752" xmlns="http://www.w3.org/2000/svg">
 <defs>
  <clipPath id="a">
   <path d="m139.21 175h473.58v402h-473.58z"/>
  </clipPath>
 </defs>
 <g clip-path="url(#a)">
  <path d="m514.66 228.46 17.262-10.398c7.2109-4.3438 14.668-4.6328 20.688 2.0234l24.707-15.082c11.664-6.5625 24.977 6.3086 30.43 16.363 4.5781 8.4414 9.0664 24.152-1.1016 30.168l-23.879 14.277c-0.16406 7.7383-3.1094 12.293-9.6562 16.551l-7.7656 5.3867c5.2148 7.3477 10.754 15.547 16.863 24.875 6.2617 9.5625 11.145 21.195 9.6602 32.816l-1.3789 55.191c-1.043 22.828-21.398 35.406-38.906 45.848l-190.8 113.79c-18.977 11.41-40.801 17.711-62.797 15.262-20.293-2.2578-43.359-13.871-56.633-29.469l-89.758-105.51c-8.8125-11.824-12.375-20.148-12.281-35.074l-0.085938-54.109c-0.55078-24.578 16.145-40.523 36.246-51.613l194.58-107.35c39.07-21.555 59.98-23.664 98.18 4.1094 17.324 12.594 30.883 22.582 42.43 31.98 1.7812 1.4492 1.6992 1.3555 4-0.03125zm-38.262 60.375c0.625 0.69531 0.56641 1.7617-0.125 2.3867-0.69531 0.625-1.7617 0.56641-2.3867-0.125l-6.4883-7.1914c-0.625-0.69531-0.56641-1.7617 0.125-2.3867 0.69531-0.625 1.7617-0.56641 2.3867 0.125zm14.785-3.9023c0.625 0.69531 0.56641 1.7617-0.125 2.3867-0.69531 0.625-1.7617 0.56641-2.3867-0.125l-12.926-14.328c-0.625-0.69531-0.56641-1.7617 0.125-2.3867 0.69531-0.625 1.7617-0.56641 2.3867 0.125zm14.785-3.9023c0.625 0.69531 0.56641 1.7617-0.125 2.3867-0.69531 0.625-1.7617 0.56641-2.3867-0.125l-19.367-21.461c-0.625-0.69531-0.56641-1.7617 0.125-2.3867 0.69531-0.625 1.7617-0.56641 2.3867 0.125zm14.785-3.9023c0.625 0.69531 0.56641 1.7617-0.125 2.3867-0.69531 0.625-1.7617 0.56641-2.3867-0.125l-25.805-28.598c-0.625-0.69531-0.56641-1.7617 0.125-2.3867 0.69531-0.625 1.7617-0.56641 2.3867 0.125zm-191.38 251.67c1.5352-0.40234 2.1484 1.9297 0.61328 2.332-22.492 5.9102-44.926 3.4883-65.242-7.9961-1.3789-0.77734-0.19922-2.8711 1.1797-2.0977 19.746 11.164 41.586 13.508 63.445 7.7617zm80.48-85.625-50.859 31c-17.164 10.461-41.891 21.395-61.59 12.273-11.078-5.1289-16.848-15.691-15.824-27.77 1.9336-22.816 22.398-37.035 40.066-47.852l158.68-97.148c19.547-11.969 50.656-13.762 66.172 5.457 12.379 15.332 4.0625 32.508-8.8281 43.82-6.2305 5.4688-13.383 10.473-20.512 14.816-25.203 15.363-50.41 30.727-75.602 46.082-10.551 6.4336-21.195 12.918-31.699 19.32zm14.352-14.395-33.887-36.051 0.79688 22.191 20.074 21.797 13.02-7.9375zm-17.219 10.496-17.434-18.93-64.301 39.367c-10.738 6.5742-18.633 11.559-25.27 22.605 18.148 7.9102 41.113-2.8789 56.863-12.48l50.137-30.559zm-20.711-24.789-0.82031-22.855c-0.20312-1.8203 0.17188-3.9648 1.9062-4.9375l11.445-6.4492c4.6836-2.5273 5.9922-1.8828 9.4219 1.8125l12.551 13.516 61.539-37.676c16.293-9.9766 38.34-10.5 55.086-1.293 9.6758-9.6719 14.707-22.824 5.3281-34.445-13.836-17.141-42.48-15.027-59.668-4.5039l-158.79 97.215c-16.488 10.094-36.09 22.988-37.887 44.207-0.71094 8.3945 2.3555 16.086 9.3633 20.91 6.9336-11.617 15.113-17.125 26.41-24.039l62.652-38.355c1.3984-0.86328 1.543-0.61719 1.457-3.1016zm7.043-25.609 35.094 37.336 9.0977-5.5469-32.844-35.363c-1.3242-1.4258-1.5156-1.7852-3.5117-0.83984l-7.8359 4.418zm30.812 10.293 17.582 18.934 73.316-44.688c6.3164-3.8516 13.004-8.582 18.605-13.355-14.816-7.5312-34.516-6.8008-48.672 1.8672zm64.172-68.176c-1.3594 0.8125-2.5938-1.2539-1.2383-2.0664 11.547-6.9492 25.414-9.9336 38.512-5.8672 1.5156 0.46484 0.80859 2.7695-0.70703 2.3047-12.426-3.8594-25.621-0.95703-36.566 5.6289zm-215.41 71.598c-1.4336-1.6836 1.1328-3.8633 2.5625-2.1797l6.2773 7.3789c1.4336 1.6836-1.1328 3.8633-2.5625 2.1797zm-14.891 3.4688c-1.4336-1.6836 1.1328-3.8633 2.5625-2.1797l12.504 14.699c1.4336 1.6836-1.1328 3.8633-2.5625 2.1797zm-14.891 3.4688c-1.4336-1.6836 1.1328-3.8633 2.5625-2.1797l18.73 22.02c1.4336 1.6836-1.1328 3.8633-2.5625 2.1797zm-14.891 3.4688c-1.4336-1.6836 1.1328-3.8633 2.5625-2.1797l24.957 29.34c1.4336 1.6836-1.1328 3.8633-2.5625 2.1797zm-14.891 3.4688c-1.4336-1.6836 1.1328-3.8633 2.5625-2.1797l31.184 36.656c1.4336 1.6836-1.1328 3.8633-2.5625 2.1797zm-23.016 13.512-38.711-45.504c-2.9297-3.9297-5.4961-8.1641-7.5195-12.633l0.054687 33.645c-0.089843 13.852 3.1602 21.215 11.332 32.184l18.184 21.375c-1.7617-3.9336-3.0703-7.7188-3.8828-11.195-3.9258-16.777 4.5078-26.488 20.543-17.871zm33.477 39.352c1.6328 3.7266 2.8516 7.3125 3.6289 10.621 4.0117 17.133-4.8281 26.582-20.98 17.629l38.133 44.824c12.754 14.992 34.406 26.148 53.953 28.324 20.879 2.3242 41.664-3.7031 59.797-14.602l191.17-114c17.102-10.199 34.234-19.848 36.199-41.766l1.0156-40.691c-7.707 12.5-24.965 24.688-38.48 32.75l-187.43 111.78c-41.484 24.941-87.453 20.883-121.09-16.113-5.1719-5.6875-10.07-11.883-15.91-18.75zm-33.645-33.871c-12.801-8.0039-19.102-3.3516-15.672 11.293 3.7891 16.195 18.453 36.758 32.57 45.586 12.801 8.0039 19.102 3.3555 15.672-11.293-3.7891-16.195-18.453-36.758-32.57-45.586zm201.25-204.21c-1.3594 0.8125-2.5938-1.2539-1.2383-2.0664 11.547-6.9492 25.414-9.9336 38.512-5.8672 1.5156 0.46484 0.80859 2.7695-0.70703 2.3047-12.426-3.8594-25.621-0.95703-36.566 5.6289zm-53.113 106.71-40.102-43.402 2.3398 20.617 25.887 30.09zm-16.035 9.8633-24.66-28.664-88.844 50.141c-4.6094 2.5977-8.6836 5.2188-11.551 9.7812 27.594 19.992 71.676 1.5859 97.465-14.281zm-26.633-33.078-2.3984-21.113c-0.32422-2.8438 0.054687-4.4844 2.6445-5.8203l10.586-5.4648c4.3281-2.2344 5.7969-2.1562 9.1172 1.5664l11.617 13.016 52.633-29.707c21.547-12.969 47.973-16.215 68.727 0.63281 9.8945-10.367 13.934-23.992 6.2148-37.051-4.6172-7.8086-12.875-14.109-23.219-17.32-18.492-5.7422-34.68-0.62109-50.898 8.5312l-171.89 97.016c-14.957 8.4336-22.848 20.449-24.188 32.07-1.0859 9.4219 2.1445 18.301 8.918 24.871 3.3008-5 7.7695-7.9609 12.91-10.859l89.234-50.359zm5.4375-24.188 41.418 44.824 8.1211-4.9961-38.766-43.43c-1.168-1.3086-1.4805-1.1953-3.0156-0.40234l-7.7578 4.0078zm29.41 10.043 24.297 27.219 75.977-46.742c4.9961-3.0742 9.7656-5.9062 14.262-9.8398-24.387-15.996-38.645-11.914-62.762 0.14453l-51.77 29.219zm203.45 120.39c0.19922-0.34375 0.64062-0.46484 0.98438-0.26562 0.34375 0.19922 0.46484 0.64062 0.26562 0.98438l-8.3359 14.438c-0.19922 0.34375-0.64062 0.46484-0.98438 0.26562-0.34375-0.19922-0.46484-0.64062-0.26562-0.98438zm2.4258 5.0742c0.19922-0.34375 0.64453-0.46484 0.98828-0.26172 0.34375 0.19922 0.46484 0.64453 0.26172 0.98828l-3.0898 5.3516c-0.19922 0.34375-0.64453 0.46484-0.98828 0.26172-0.34375-0.19922-0.46484-0.64453-0.26172-0.98828zm-158.06 78.488 163.88-97.746c1.6953-1.0117 3.2422 0.25781 3.2422 2.1055v24.262c0 1.3828-0.80078 3.0508-2.0039 3.7695l-162.91 97.746c-1.6836 1.0117-3.1641-0.24609-3.2383-2.0586l-0.96484-24.262c-0.054687-1.4062 0.78125-3.0898 2-3.8164zm164.7-95.434-163.46 97.5c-0.46094 0.27344-0.85156 1.1289-0.82812 1.6562l0.96094 24.105 162.51-97.504c0.46875-0.28125 0.82422-1.1719 0.82422-1.7031zm-336.59-94.289 171.65-96.879c17.562-9.9141 34.906-15.293 54.914-9.082 11.512 3.5742 20.746 10.66 25.957 19.473 9.4062 15.91 3.9766 31.078-6.9023 42.637-5.6445 5.9961-11.605 9.8203-18.391 13.992l-136.45 83.953c-27.258 16.77-70.703 34.395-100.6 15.539-11.797-7.4414-18.418-19.93-16.805-33.922 1.5039-13.051 10.195-26.449 26.625-35.715zm356.16-31 7.9141-5.4844c11.535-6.8047 7.7227-21.125 1.4492-32.48l-26.086 16.539c5.457 6.3906 10.91 13.391 16.727 21.426zm-19.934-25.113 26.051-16.516-16.43-15.785c-1.3438-1.293-3.0391-3.1289-4.4023-4.293-3.7773-3.2266-8.0742-3.1836-12.582-0.42578l-17.195 10.363c-1.3477 0.77734-1.9141 0.94922-0.23828 2.3906 5.0078 4.3008 9.6641 8.5664 14.141 13.004 3.6445 3.6133 7.1641 7.332 10.656 11.266zm-387.14 122.88 87.551 102.92c30.484 35.836 76.707 38.742 115.3 15.543l187.86-112.03c12.492-7.4492 29.027-19.543 36.148-31.309 6.7617-11.176 7.1523-24.199-4.1133-41.402-19.824-30.273-33.535-48.477-49.652-64.445-15.738-15.594-33.902-29.191-62.383-49.902-37.07-26.961-55.605-25.406-93.648-4.418l-194.64 107.39c-18.324 10.109-34.25 24.41-33.809 46.973 0.21094 10.719 4.4141 21.316 11.398 30.688zm437.72-137.6c0.11328 1.582-2.2969 1.7539-2.4062 0.17188-0.55859-7.8789-6.4141-18.258-13.152-22.461-1.3438-0.83594-0.070312-2.8867 1.2734-2.0469 7.3828 4.6055 13.672 15.707 14.285 24.34zm-7.168 4.332c0.11328 1.582-2.2969 1.7539-2.4062 0.17188-0.55859-7.8789-6.4141-18.258-13.152-22.461-1.3438-0.83594-0.070313-2.8867 1.2734-2.0469 7.3828 4.6055 13.672 15.707 14.285 24.34zm14.336-8.6641c0.11328 1.582-2.2969 1.7539-2.4062 0.17188-0.55859-7.8789-6.4141-18.258-13.152-22.461-1.3438-0.83594-0.070313-2.8867 1.2734-2.0469 7.3828 4.6055 13.672 15.707 14.285 24.34zm-44.16-16.121 16.672 16.02c2.2461 2.1602 3.5781 4.2461 5.0117 6.9727 2.2656 4.3008 3.8672 9.125 4.543 13.863l21.758-13.016c7.0664-4.6055 3.418-16.164-0.67969-23.719-4.2344-7.8086-13.949-18.953-23.766-14.492z"/>
 </g>
</svg>
