<?xml version="1.0" encoding="UTF-8"?>
<svg width="752pt" height="752pt" version="1.1" viewBox="0 0 752 752" xmlns="http://www.w3.org/2000/svg">
 <path d="m316.51 356.43c0.92969 1.4414 1.0938 3.2461 0.98828 5.0625-0.42578 7.3594-5.793 14.18-12.504 19.98-11.328 9.8008-26.176 16.824-38.926 24.859-13.297 8.3789-18.801 15.02-22.828 27.926-2.2773 7.3008-3.7266 15.129-5.3828 22.57l-8.0625 36.199c-3.8086 17.094-4.2734 25.461 3.6328 41.977 8.4453 17.637-13.949 31.234-25.512 12.68-11.234-18.023-11.102-38.938-6.7617-59.102l14.105-65.543c3.7148-17.27 7.9648-24.07 22.039-35.59 7.8242-6.4023 16.031-13.121 21.434-28.859 1.1875-3.4609 2.3633-8.4297 4.9844-10.883-4.5508-2.4648-5.4922-5.5273-7.5078-9.8203-3.7656-8.0156-7.3125-9.8867-16.156-10.496-9.8633-0.68359-15.449-4.9336-20.219-13.273-4.082-7.1367-8.0938-10.641-13.844-15.98-8.8555-8.2188-17.973-17.035-27.793-26.523-9.3516-9.0391-19.344-18.695-30.441-29.121-7.4727-7.4727-9.9844-11.027-3.1836-19.938 5.2188-6.832 12.344-14.281 18.094-20.906 7.9648-9.7656 14.734-6.7852 23.355 0.17188l69.805 56.309c8.293 6.6875 16.293 12.492 23.266 16.879 1.1289 0.71094 2.2344 1.3867 3.3047 2.0195l10.016-15.828h-0.003906c5.0391-8.7734 20.176 0.95312 14.754 9.6992l-7.957 12.844c5.9141 0.14844 10.457-3.4023 15.414-7.2773 3.4922-2.7305 6.4961-5.1055 11.207-4.5664l6-10.039c1.4648-2.4531 4.4336-3.0352 7.9414-2.3672l6.082-10.266c4.5117-7.2422 20.242 1.9961 16.125 10.098l-5.6992 9.7031c2 2.2539 4.1445 5.9141 2.3906 8.918l-6.0078 10.566c3.3633 5.3867-0.16406 10.441-2.793 15.133l-20.23 36.102c-2.9492 5.2656-6.168 10.949-11.953 13.453-3.043 1.3164-2.2773 1.5156-1.1797 3.2227zm-14.766-85.73-7.0469-4.2695-2.2148 3.5 7.082 4.2891zm-6.293-5.4648 7.0352 4.2617 0.76953-1.25c1.875-3.0703-5.2148-7.3516-6.7422-4.6914l-1.0664 1.6797zm3.3672 10.188-7.0938-4.2969-2.2148 3.5 7.125 4.3164 2.1797-3.5195zm-2.9258 4.7227-7.1367-4.3242-2.2383 3.5391c2.9258 1.5586 5.5273 2.7344 7.7188 3.4609zm153.98-10.074 7.0547-4.2734-1.4492-2.2422c-1.5273-2.6602-8.6172 1.6211-6.7422 4.6914zm7.8203-3.0859-7.0703 4.2852 2.1992 3.5078 7.1211-4.3125zm3.0156 4.668-7.1367 4.3242 2.1992 3.5078 7.1875-4.3555-2.25-3.4805zm3.0156 4.668-7.207 4.3633 1.3203 2.1055c2.2148-0.73828 4.8438-1.9336 7.7969-3.5156l-1.9102-2.957zm-162.09 67.031c-1.5508-0.10938-1.3867-2.4688 0.16797-2.3594 5.8594 0.41797 9.0078 1.3516 12.434-4.7812 0.75391-1.3555 2.8164-0.21094 2.0625 1.1484-4.0938 7.332-7.582 6.5-14.664 5.9961zm148.05-2.3594c1.5508-0.10938 1.7188 2.25 0.16797 2.3594-7.082 0.50391-10.57 1.3398-14.664-5.9961-0.75391-1.3555 1.3086-2.5039 2.0625-1.1484 3.4258 6.1367 6.5742 5.2031 12.434 4.7812zm-53.973-71.953-5.4102-9.2148c-4.8047-8.1797 11.148-18.191 16.262-9.8789l5.6602 9.5547c4.0547-0.76953 6.4414-0.15625 8.457 3.2188l5.4883 9.1875c4.8281-0.55469 7.7812 1.8867 11.207 4.5664 4.9805 3.8906 9.5469 7.457 15.504 7.2734l-8.1562-13.023c-5.4805-7.8242 9.9102-18.094 14.852-9.5391l10.18 15.754c1.0195-0.60547 2.0703-1.25 3.1445-1.9258 6.9727-4.3906 14.977-10.191 23.266-16.879l69.805-56.309c8.625-6.957 15.391-9.9375 23.355-0.17188l17.699 20.398c7.0508 8.9766 5.0195 13.051-2.7773 20.438-9.8047 9.8047-20.426 19.441-30.449 29.133-9.8203 9.4922-18.938 18.305-27.793 26.523-5.75 5.3359-9.7617 8.8438-13.844 15.98-4.7695 8.3398-10.355 12.59-20.219 13.273-9.7266 0.67188-12.832 2.9922-16.738 11.809-0.94922 2.1406-1.8008 4.3125-3.6445 6.0586-3.3008 3.1328-3.2539 1.832-1.0195 5.7188 1.1602 2.0195 1.9141 5.2617 2.7227 7.6133 5.4023 15.734 13.609 22.453 21.434 28.859 14.336 11.734 18.379 18.578 22.121 35.977l14.023 65.156c4.3398 20.164 4.4688 41.078-6.7617 59.102-11.562 18.555-33.957 4.957-25.512-12.68 7.9805-16.664 7.4023-25.051 3.582-42.203l-10.836-48.66c-4.1523-18.637-8.3711-27.086-25.387-37.809-12.75-8.0352-27.594-15.059-38.926-24.859-6.7109-5.8047-12.078-12.621-12.504-19.98-0.16016-2.7695 0.64844-5.3125 2.6055-7.293-6.9922-1.793-10.879-7.5312-14.199-13.457l-21.258-37.945c-2.6602-4.3828-5.3945-9.3516-2.3203-14.277l-6.0078-10.566c-1.75-3 0.39063-6.6602 2.3906-8.918zm11.875-8.0859-5.0781-8.5703c-1.9102-3.2227-9.8594 2.1289-8.082 5.1523l4.8438 8.2461c2.5078-1.9258 5.3945-3.6094 8.3164-4.8281zm14.082 12.637-5.0664-8.4805c-1.1797-1.7656-2.8281-1.2695-5.2383-0.51172-3.5273 1.1094-7.293 3.2852-10.121 5.6602-2.5781 2.1641-4.332 4.3242-3.7539 5.4844l5.2461 9.2266c0.75-0.56641 1.4141-0.97656 2.207-1.4453l16.723-9.9258zm78.848 109.17c-5.7578-4.6289-8.4805-7.6055-16.129-6.332l-13.324 2.2148c-1.5312 0.25391-1.9219-2.0742-0.38672-2.332l13.344-2.2188c6.2031-1.0312 8.8516-0.17188 13.91 3.6211-3.4219-4.4883-6.5664-10.074-9.1445-17.582-3.1992-9.3242-4.1445-10.715-13.832-9.25l-30.414 4.6016c-3.0703 0.77344-5.5234 2.2852-5.3242 5.7539 0.33594 5.832 5.0156 11.602 10.875 16.672 11.008 9.5234 25.918 16.602 38.352 24.434 18.176 11.453 23.047 20.906 27.496 40.879l10.789 48.445c4.0781 18.312 4.5859 27.641-3.9062 45.379-5.8906 12.305 8.8203 21.66 17.242 8.1484 10.562-16.945 10.227-36.699 6.1523-55.625l-14.031-65.211c-3.4648-16.102-7.1211-22.305-20.484-33.242-3.7852-3.0977-7.2969-5.2305-11.184-8.3594zm60.988-156.75c0.51172-0.40234 1.2578-0.31641 1.6602 0.19922 0.40234 0.51172 0.31641 1.2578-0.19922 1.6602l-41.844 32.828c-4.1562 3.2617-5.0859 6.2148 0.37891 8.1953 7.1367 2.5898 11.566 4.1172 14.664 4.6953 2.8438 0.53516 4.4961 0.23438 6.2305-0.77734 2.7578-1.6133 7.0312-5.1289 11.477-9.1211 6.0977-5.4727 12.465-11.785 15.789-15.379 0.44141-0.47656 1.1875-0.50781 1.6641-0.066406s0.50781 1.1875 0.066406 1.6641c-3.3945 3.668-9.832 10.055-15.938 15.539-4.5547 4.0898-8.9609 7.7109-11.863 9.4102-2.25 1.3164-4.3477 1.7109-7.8555 1.0547-3.2578-0.61328-7.7773-2.168-15.031-4.7969-7.3047-2.6523-6.6445-7.8711-1.0352-12.273l41.844-32.828zm38.637-4.6836-8.8906 7.4844c-1.8203 1.832-4.3281 2.4727-6.4609 0.13281l-7.1875-8.0508c-2.0391-2.332-1.7773-4.9453 0.52734-6.9727l8.8359-7.7773-1.2695-1.4688c-6.0859-7.4805-10.234-4.4336-16.766 0.83594l-69.805 56.309c-8.4219 6.793-16.578 12.703-23.711 17.195-7.0742 4.4531-13.195 7.5352-17.66 8.7461-10.105 2.7383-16.352-2.1406-23.285-7.5625-2.8047-2.1914-6.125-5.0703-9.8633-2.8516l-18.047 10.711c-5.5625 3.6094-4.2305 7.6211-0.78906 12.434l21.395 38.18c4.1094 7.3359 7.9844 11.547 16.895 11.402 9.75-0.16016 20.848-2.4531 30.414-3.8984 4.6094-0.69531 9.9102-0.80469 13.445-4.1484 1.4922-1.4141 2.2188-3.0469 2.957-4.7188 4.6328-10.449 9.2578-13.824 20.754-14.621 8.293-0.57422 12.441-3.9336 16.426-10.906 4.3828-7.6602 8.5469-11.348 14.73-17.09 8.9023-8.2617 17.973-17.027 27.738-26.469 9.3906-9.0781 19.426-18.777 30.477-29.16 5.9961-5.6758 7.6719-7.25 2.3086-14.082zm-11.621-13.395-8.8242 7.7656c-2.2305 1.9609-0.29297 3.6211-0.31641 3.6445l7.1523 8.0117c1.082 1.1641 2.082 0.70703 3.0898-0.25391l8.9727-7.5547-10.078-11.613zm-69.285 99.535c2.7422-10.227-13.078-15.023-15.957-4.2773-1.1836 4.4102 1.4297 8.9375 5.8398 10.117 4.4102 1.1836 8.9375-1.4297 10.117-5.8398zm2.2852 0.60938c-1.5156 5.6641-7.3516 9.0312-13.012 7.5156-5.6641-1.5156-9.0312-7.3516-7.5156-13.012 1.5156-5.6641 7.3516-9.0312 13.012-7.5156 5.6641 1.5156 9.0312 7.3516 7.5156 13.012zm-177.12-47.121c2.9219 1.2188 5.8125 2.9023 8.3164 4.8281l5.0469-8.5938c1.4102-2.8867-6.7031-7.332-7.8984-5.457zm-14.082 12.637 16.891 10.027c0.72656 0.42969 1.3516 0.83203 2.043 1.3477l5.2422-9.2266c1.8203-3.6562-16.562-14.68-18.625-11.453zm-90.031 117.53c-13.082 10.707-16.961 16.867-20.395 32.836l-14.121 65.617c-4.0742 18.926-4.4062 38.68 6.1523 55.625 8.4219 13.512 23.133 4.1523 17.242-8.1484-8.2227-17.172-8.1172-26.473-4.1016-44.516l8.2305-36.953c1.6133-7.2422 3.0234-14.781 5.1758-21.898 4.4062-14.562 10.527-22.172 25.074-31.34 12.434-7.8359 27.344-14.91 38.352-24.434 5.8594-5.0703 10.539-10.836 10.875-16.672 0.19922-3.4688-2.2539-4.9805-5.3242-5.7539-11.773-1.7812-26.445-4.7891-35.648-5.2109-6.4766-0.03125-6.9219 4.9688-8.5977 9.8594-2.5781 7.5078-5.7188 13.094-9.1445 17.582 5.2148-3.9141 7.8125-4.6367 14.113-3.5898l13.141 2.1875c1.5312 0.25391 1.1445 2.5859-0.38672 2.332l-13.043-2.168c-5.8242-0.96875-8.0273-0.19141-12.859 3.4805-4.8203 3.6602-10.137 7.4023-14.734 11.164zm-51.266-163.25c-1.2227-0.96094 0.23828-2.8203 1.4609-1.8594l41.844 32.828c5.6016 4.3945 6.2891 9.6172-1.0352 12.273-7.2539 2.6328-11.777 4.1875-15.031 4.7969-3.5117 0.66016-5.6055 0.26172-7.8555-1.0547-8.3516-4.8828-21.105-17.707-27.805-24.945-1.0508-1.1367 0.67578-2.7383 1.7305-1.6016 6.5156 7.043 19.156 19.762 27.266 24.504 1.7305 1.0117 3.3867 1.3086 6.2305 0.77734 3.0938-0.58203 7.5273-2.1055 14.664-4.6953 5.4922-1.9922 4.4961-4.9648 0.37891-8.1953l-41.844-32.828zm-35.629-8.3242 8.9727 7.5547c1.0039 0.96094 2.0039 1.4141 3.0898 0.25391l7.1523-8.0117c0.78906-1.1602 1.3125-2.0312-0.31641-3.6445l-8.8242-7.7656-10.078 11.613zm11.625-13.402 8.8359 7.7773c2.3047 2.0273 2.5703 4.6406 0.52734 6.9727l-7.1836 8.0508c-1.5977 2.0703-4.3047 1.8203-6.4609-0.13281l-8.8906-7.4844c-1.125 1.2969-2.3672 2.6133-3.4102 3.9609-5.0742 6.5703-3.3555 8.1797 2.5469 13.773 11.051 10.383 21.086 20.082 30.477 29.16 9.7656 9.4414 18.836 18.207 27.738 26.469 6.1875 5.7422 10.352 9.4297 14.73 17.09 3.9844 6.9688 8.1328 10.332 16.426 10.906 10.59 0.73438 15.594 3.5938 20.113 13.219 2.8398 6.043 3.9844 8.0742 11.371 9.5664 12.047 0.55859 23.625 4.2734 35.738 4.5977 10.055 0.26563 13.547-4.793 17.883-12.527l20.258-36.145c2.8711-5.1211 6.4102-8.9805-0.28906-13.328l-18.047-10.711c-3.7266-2.2109-7.0273 0.63672-9.8633 2.8516-6.9375 5.4219-13.184 10.301-23.285 7.5625-4.4648-1.2109-10.586-4.293-17.66-8.7461-7.1328-4.4922-15.289-10.402-23.711-17.195l-69.805-56.309c-6.5312-5.2695-10.68-8.3164-16.766-0.83594l-1.2695 1.4688zm65.449 101.93c-1.5156-5.6641 1.8516-11.496 7.5156-13.012 5.6641-1.5156 11.496 1.8516 13.012 7.5156 1.5156 5.6641-1.8516 11.496-7.5156 13.012s-11.496-1.8516-13.012-7.5156zm2.2852-0.60938c1.1836 4.4102 5.707 7.0234 10.117 5.8398s7.0234-5.707 5.8398-10.117-5.707-7.0234-10.117-5.8398c-4.4102 1.1836-7.0234 5.707-5.8398 10.117z"/>
</svg>
