<?xml version="1.0" encoding="UTF-8"?>
<svg width="752pt" height="752pt" version="1.1" viewBox="0 0 752 752" xmlns="http://www.w3.org/2000/svg">
 <path d="m500.62 422.23c2.1719 0.58594 3.3242 1.543 4.2695 2.3242 1.5-1.7695 3.082-3.1641 6.9609-4.5859 10.902-4 21.328-9.5742 28.871-18.633 15.09-18.121 11.074-44.035-2.2422-62.008-6.5195-8.7969-15.383-15.227-25.777-15.93-11.059-0.74609-21.645 4.875-30.23 13.52-7.0898 7.1367-12.793 16.297-16.297 25.66-5.1562 13.773-7.1797 32.891 3.4922 44.445 6.7266 7.2812 17.613 11.594 30.957 15.203zm-295.95-109.62c0.13281-1.8594 2.9609-1.6602 2.832 0.19922l-9.3867 127.97c-0.13281 1.8594-2.9609 1.6602-2.832-0.19922zm-19.598 97.645c5.3867 5.4648 5.3867 14.387 0 19.852-5.4062 5.4844-14.266 5.4844-19.668 0-5.3867-5.4648-5.3867-14.387 0-19.852 5.4062-5.4844 14.266-5.4844 19.668 0zm-3.3672 3.3125c-3.5469-3.5977-9.3906-3.5977-12.938 0-3.5742 3.625-3.5742 9.6016 0 13.227 3.5469 3.5977 9.3906 3.5977 12.938 0 3.5742-3.625 3.5742-9.6016 0-13.227zm7.1133-93.883c5.0625 5.1328 5.0625 13.516 0 18.652-5.082 5.1523-13.41 5.1523-18.488 0-5.0625-5.1328-5.0625-13.516 0-18.652 5.082-5.1523 13.41-5.1523 18.488 0zm-3.3672 3.3125c-3.2227-3.2695-8.5352-3.2695-11.754 0-3.25 3.2969-3.25 8.7344 0 12.031 3.2227 3.2695 8.5352 3.2695 11.754 0 3.25-3.2969 3.25-8.7344 0-12.031zm130.83 123.31c30.324 0.078125 60.184-0.96875 90.273-2.0273 17.984-0.63281 64-6.6914 74 12.422 8.418 16.094 16.211 23.449 34.453 20.59 3.6914-0.57812 4.3945-1.8711 5.3359-6.2461 1.1641-5.4023 0.33594-11.652-1.6016-16.824-1.9883 0.0625-3.9492 0.019532-5.8789-0.125-15.422-1.1523-29.09-8.668-39.141-19.797-18.211-20.164-21.332-47.082-12.43-72.145 3.6992-10.414 9.9648-20.66 17.82-28.574 9.207-10.844 26.508-15.609 32.18-23.984 3.7695-5.1211 1.9219-22.668 1.168-28.555-0.86719-6.7812-9.1484-7.25-17.215-7.0273-5.4844 0.15234-10.926 1.0508-14 3.2305-4.6016 3.2695-7.0312 7.9648-10.547 12.23-6.4922 7.8789-13.609 13.266-21.934 17.039-10.074 4.5664-21.855 6.7227-36.441 8.0859-22.422 2.0977-47.707 1.1328-71.062 0.23828-5.1641-0.19922-10.824-0.10156-15.949-0.66406l-63.27 49.504c-1.0273 0.80078-2.5078 0.62109-3.3125-0.40625-0.80078-1.0273-0.62109-2.5078 0.40625-3.3125l60.348-47.219c-2.4141-0.91797-4.2891-1.6641-6.9258-2.043-13.383-0.86328-26.496-1.8828-39.605-2.9062-14.582-1.1367-69.457-8.2227-80.195-1.1367-4.3477 2.8711-7.7773 3.5156-13.688 4.6211-9.2227 1.7266-15.684 5.332-16.906 15.496-1.0664 8.8477 4.168 15.09 11.762 18.832 23.582 11.949 29.941 45.098 5.0039 52.973-5.6914 1.7617-12.707 3.9297-17.301 8.8164-6.4609 6.8672-6.6211 18.629 0.003907 25.445 3.8516 3.9648 9.707 6.5508 16.488 7.9727 12.043 2.5234 10.902 5.8828 18.504 11.273 25.785 18.285 80.398 19.453 105.95 0.55859 6.1367-4.5391 5.8789-3.207 0.21094-7.6406l-41.527-32.492c-1.0273-0.80078-1.207-2.2852-0.40625-3.3125s2.2852-1.207 3.3125-0.40625l45.891 35.906c2.3984 1.8672 2.3867 1.8125 6.2188 1.6055zm203.03-141.56c0.36719 1.3281 0.81641 2.5195 1.3789 3.5859 2.1953 4.1562 6.3867 6.7109 14.426 8.7227 16.836 4.207 30.684 12.668 39.973 24.57 20.086 25.738 15.598 66.578-6.6094 89.59-10.43 10.805-25.23 18.785-44.898 22.492 1.9414 5.7109 2.6641 12.414 1.3906 18.32-0.85156 3.9531-2.6641 4.8125 1.6562 6.0195 4.7383 1.3242 12.141-0.28516 15.543-4.0195 1.4531-1.5938 2.4922-3.6289 4.1367-6.2852 7.832-12.656 13.051-21.09 25.941-31.023 24.691-23.488 32.172-63.25 16.371-93.715-5.5781-10.754-13.898-20.348-24.602-29.348-5.3047-3.5781-9.4297-6.6562-12.809-9.6016-3.4336-2.9922-6.0547-5.8203-8.3125-8.8594-3.1758-4.2734-4.4297-9.332-6.6328-14.016-0.90234-1.918-1.7422-3.2773-2.6875-4.2305-2.8398-2.8633-14.129-3.7891-15.215 1.9062-1.5234 5.6484-0.58203 20.336 0.94922 25.895zm-3.0195 5.3594c-1.4766 3.582-3.9492 6.2266-7.0391 8.5234 1.2461-0.054688 2.5-0.039063 3.7617 0.042969 11.93 0.80469 21.969 8 29.254 17.832 14.629 19.746 18.574 48.02 2.0781 67.836-8.0977 9.7266-19.23 15.785-30.871 20.055-6.9414 2.5469-5.1992 3.2031-1.8984 7.582 3.9805 5.2852 7.457 11.242 10.191 17.254 19.109-3.4375 33.375-11.008 43.305-21.297 20.562-21.305 24.922-59.543 6.293-83.41-8.625-11.051-21.582-18.934-37.402-22.887-7.2188-1.8047-14.184-4.4805-17.676-11.531zm-46.68 11.578c2.4805-1.8633 5.3125 1.9141 2.832 3.7734-32.105 24.07-37.133 76.762-11.43 107.13 2.0039 2.3711-1.6016 5.4219-3.6055 3.0508-27.461-32.449-22.074-88.258 12.207-113.96zm8.543-27.25c1.9141-2.0312 4.0469-4.8516 5.4141-7.3281 1.3242-2.3906 0.375-2.0312-0.875-0.63672-1.8633 2.0781-3.8359 4.9922-5.1523 7.3711-1.1406 2.0625-0.95703 2.2578 0.61328 0.59375zm2.9844-12.762c5.0078-3.4805 9.1211-0.55469 7.4766 5.3203-1.1836 4.2188-4.9297 9.5-8.5469 12.012-2.3086 1.6055-4.5664 2.0078-6.2227 0.82812-1.6562-1.1758-2.0117-3.4414-1.2539-6.1484 1.1836-4.2188 4.9297-9.5 8.5469-12.012zm-17.453 125.5c2.7383 8.9531 7.4141 17.184 13.535 23.965 9.2656 10.258 21.84 17.184 35.996 18.242 1.1484 0.085938 2.3008 0.13281 3.4648 0.14063-3-6.2344-7.0391-12.855-11.617-18.07-4.2695-4.8594-4.1602-4.1016-11.035-6.1914-11.703-3.5547-21.34-7.9961-27.844-15.035-0.89453-0.96875-1.7305-1.9844-2.5-3.0508zm87.727 64.527 0.015626-3.2656c-0.60938 0.98047-1.2148 1.9648-1.8242 2.9453 0.44531 0.16797 1.0078 0.32422 1.8086 0.32031zm4.7695-10.734-0.050782 10.027c3.6367-0.60156 8.3906-1.4102 11.129-1.9648 2.2852-0.46484 2.3867-0.26562 2.8984-2.7461 0.41406-1.9961 0.625-4.9375 0.63281-7.9883 0.007812-2.3984 0.17578-10.918-2.5586-11.98-4.9258 4.6758-8.5078 9.3203-12.055 14.652zm-9.5898-168.72c-0.03125-3.1484-0.24609-7.0273-1.3086-9.9922-1.3047-3.6562-2.3594-3.3867-4.75-2.4922 2 3.9453 2.457 7.6797 6.0586 12.484zm1.9453-14.121c0.46484 0.73438 0.86719 1.5859 1.207 2.5352 0.98438 2.7539 1.4648 6.5 1.5547 10.738 0.035157 1.7031 0.011719 3.4727-0.066406 5.2734 0.29297 1.5 2.1367 2.9961 3.0859 3.8281 1.7812 1.5508 4.5469 3.5625 6.8047 3.3281 1.1641-0.12109 2.1914-0.84375 2.875-2.5352 1.707-4.2188 1.2773-11.938 0.45703-16.391-0.69141-4.7461-1.4414-5.3438-6.8984-6.2109-2.832-0.4375-6.0977-0.63672-9.0156-0.5625zm-2.6211 198.92c-4.5195 4.9375-13.75 7.1875-20.16 5.6406-4.1445-1-5.1289-1.4766-9.7695-0.78125-20.707 3.1016-30.152-4.9453-39.613-23.027-8.3633-15.988-54.379-10.426-69.672-9.8867-30.062 1.0547-59.891 2.1055-90.316 2.0273-5.1953 0.25781-7.2305 2.6289-10.992 5.4141-27.188 20.109-84.062 18.953-111.5-0.5-6.8242-4.8398-6.1562-8.2773-16.727-10.496-7.6602-1.6055-14.359-4.6172-18.914-9.3047-8.2656-8.5039-8.3125-23.312-0.3125-31.934 5.2891-5.6992 13.184-8.1445 19.609-10.129 19.41-6.4531 14.223-33.984-5.707-44.223-9.4336-4.6484-15.68-12.727-14.371-23.621 1.4727-12.242 9.418-17.465 20.738-19.586 5.3125-0.99609 8.3984-1.5742 11.949-3.918 12.707-8.3867 66.59-0.93359 83.156 0.35938 13.266 1.0352 26.539 2.0703 39.633 2.9102 2.5469 0.26562 4.957 1.0547 7.3281 1.9844 1.4922 0.58594 2.9258 1.1484 5.1211 1.4492 4.8516 0.66406 11.035 0.50781 16.043 0.69922 23.219 0.88672 48.355 1.8477 70.469-0.21875 14.07-1.3164 25.383-3.3711 34.926-7.6992 7.832-3.5508 14.523-8.6719 20.652-16.246 3.7656-4.6523 5.9023-8.9141 11.035-12.562 3.9336-2.7969 10.32-3.9297 16.609-4.1016 8.8867-0.24219 17.996 1.6719 19.805 3.5156 2.625-3.5859 12.434-3.0938 16.246-2.3086 2.957 0.60938 3.9414 1.5273 5.7969 3.582 1.25 1.3828 1.3789 1.5273 3.9688 0.39844 1.1992-0.52344 2.8281-0.83203 4.1367-0.86719 3.8867-0.42188 9-0.25391 13.195 0.39062 8.0195 0.95312 9.5 2.8867 10.82 10.043 1 5.418 1.3516 13.914-0.71484 19.02-0.87891 2.1719-2.1797 3.8672-4.0391 4.7305 0.85938 0.73047 1.7031 1.4609 2.5352 2.1914 11.23 9.8359 20.02 19.473 25.941 30.848 17.371 33.496 8.2227 78.207-20.695 102.31 3.0703 2.6133 3.3984 11.285 3.3867 15.141-0.085937 3.1445-0.43359 6.2969-0.96484 8.8086-0.98828 4.6641-1.4531 5.332-5.7773 6.3281-4.2305 0.97266-11.332 2.1406-14.863 2.7188-1.9062 0.3125-3.4297 0.51562-5.4062-0.125-2.0469-0.66406-1.207-0.47266-2.582 1.0312zm9.9961-60.152c5.3594-3.3672 9.5508-8 12.598-13.34 6.7695-11.867 7.9531-27.336 3.7266-40.262-1.7344-5.3125-4.3828-10.191-7.918-14.207 8.9961 22.523 4.6172 47.789-8.4062 67.809zm16.707-11.008c-4.9922 8.75-12.73 15.812-23.297 19.266-15.484 5.6562-2.6445-3.0469 1.7617-9.5391 14.895-21.941 18.523-50.652 4.1797-74.086-4.0352-6.2305-3.6445-6.8672 3.1836-3.2852 8.9297 5.0938 15.055 13.688 18.289 23.586 4.6445 14.215 3.3242 31.012-4.1133 44.055z"/>
</svg>
