<?xml version="1.0" encoding="UTF-8"?>
<svg width="752pt" height="752pt" version="1.1" viewBox="0 0 752 752" xmlns="http://www.w3.org/2000/svg">
 <path d="m375.11 167.67c-1.0195 0.085937-2.0234 0.33594-2.9609 0.73828l-198.9 87.309c-4.0156 2.5703-5.625 5.5742-5.625 9.4688v222.41c0.046875 3.6133 2.3203 7.1133 5.625 8.582l198.02 86.863c1.8516 0.8125 3.0977 1.2891 4.7344 1.332 1.1953 0.046875 3.418-0.84375 4.7344-1.332l198.02-86.863c3.3047-1.4688 5.5977-4.9688 5.625-8.582v-221.82c-0.050781-4.8711-2.3906-8.6445-5.625-10.062l-198.9-87.305c-1.4805-0.64453-3.1289-0.90234-4.7344-0.73828zm0.88672 19.68 175.37 77.098-72.219 31.668-175.52-76.949zm-95.898 42.172 175.52 76.949-79.621 34.922-175.38-76.949zm285.33 49.277v202.58l-179.96 79.02v-202.58l80.508-35.219v43.949c-0.070313 5.0039 4.4688 9.6055 9.4727 9.6055s9.543-4.6016 9.4727-9.6055v-52.383zm-378.86 0.14844 179.96 78.871v202.43l-179.96-78.871z"/>
</svg>
