<?xml version="1.0" encoding="UTF-8"?>
<svg width="752pt" height="752pt" version="1.1" viewBox="0 0 752 752" xmlns="http://www.w3.org/2000/svg">
 <g>
  <path d="m453.23 341.69v-101.57c0-20.59-8.043-39.977-22.648-54.586-14.613-14.605-33.992-22.645-54.586-22.645-42.586 0-77.23 34.648-77.23 77.23v101.56c-36.934 1.5547-66.527 32-66.527 69.312v108.65c0.003906 38.312 31.164 69.473 69.469 69.473h148.59c38.305 0 69.465-31.16 69.465-69.465v-108.65c-0.003907-37.312-29.594-67.762-66.527-69.312zm-77.234-159.86c15.527 0 30.156 6.0703 41.188 17.102 11.023 11.031 17.098 25.652 17.098 41.188v101.41h-116.57v-101.41c0-32.141 26.148-58.289 58.285-58.289zm124.81 337.82c0 27.855-22.66 50.52-50.516 50.52h-148.59c-27.859 0-50.523-22.664-50.523-50.523v-108.64c0-27.855 22.66-50.516 50.523-50.516h148.59c27.859 0 50.523 22.664 50.523 50.516v108.65z"/>
  <path d="m376 420.02c-17.77 0-32.227 14.457-32.227 32.227 0 14.473 9.5938 26.742 22.754 30.801v33.379c0 5.2266 4.2422 9.4727 9.4727 9.4727 5.2266 0 9.4727-4.2422 9.4727-9.4727v-33.379c13.16-4.0547 22.754-16.328 22.754-30.801 0.003907-17.77-14.457-32.227-32.227-32.227zm0 45.512c-7.3281 0-13.285-5.957-13.285-13.285 0-7.3281 5.957-13.285 13.285-13.285s13.285 5.957 13.285 13.285c0 7.3281-5.957 13.285-13.285 13.285z"/>
 </g>
</svg>
