<?xml version="1.0" encoding="UTF-8"?>
<svg width="752pt" height="752pt" version="1.1" viewBox="0 0 752 752" xmlns="http://www.w3.org/2000/svg">
 <g>
  <path d="m520.25 603.32h-102.25c-1.4141 0-2.5586-1.1445-2.5586-2.5586v-174.13c0-14.094-7.5156-27.117-19.723-34.164-12.207-7.0469-27.246-7.0469-39.449 0-12.207 7.0469-19.727 20.07-19.727 34.164v176.69h-104.8c-1.4141 0-2.5586-1.1445-2.5586-2.5586v-273.78c0-1.4102 1.1445-2.5547 2.5586-2.5547h288.5c1.4141 0 2.5586 1.1445 2.5586 2.5547v273.78c0 0.67969-0.26953 1.3281-0.75 1.8086-0.48047 0.48047-1.1289 0.75-1.8086 0.75zm-100.26-4.7344h98.078v-269.94h-284.15v269.94h98.078v-171.96c0-15.719 8.3867-30.242 22-38.102 13.613-7.8594 30.383-7.8594 43.996 0s21.996 22.383 21.996 38.102z"/>
  <path d="m435.06 349.77h4.5469v251.28h-4.5469z"/>
  <path d="m312.35 349.77h4.5469v251.28h-4.5469z"/>
  <path d="m382.39 361.98h4.5469v24.012h-4.5469z"/>
  <path d="m365.02 361.98h4.5469v24.012h-4.5469z"/>
  <path d="m232.65 576.14h80.508v4.5469h-80.508z"/>
  <path d="m438.84 576.14h80.508v4.5469h-80.508z"/>
  <path d="m232.65 555.3h80.508v4.5469h-80.508z"/>
  <path d="m438.84 555.3h80.508v4.5469h-80.508z"/>
  <path d="m232.65 445.86h80.508v4.5469h-80.508z"/>
  <path d="m438.84 445.86h80.508v4.5469h-80.508z"/>
  <path d="m533.85 328.64h-315.69c-1.3867 0-2.5078-1.125-2.5078-2.5117v-10.18c0-1.3867 1.1211-2.5117 2.5078-2.5117h315.69c1.3828 0 2.5078 1.125 2.5078 2.5117v10.324c-0.074219 1.3281-1.1758 2.3672-2.5078 2.3672zm-313.65-4.7344 311.61-0.003906v-6.1562h-311.62z"/>
  <path d="m522.29 315.9h-4.7344v-33.434h-283.3v33.434h-4.7344v-35.137c0-1.5703 1.2734-2.8438 2.8398-2.8438h287.09c1.5703 0 2.8398 1.2734 2.8398 2.8438z"/>
  <path d="m231.61 347.25h288.74v4.5469h-288.74z"/>
  <path d="m315.2 358.34h121.62v4.5469h-121.62z"/>
  <path d="m511.21 279.39h-4.7344v-20.504h-261.13v20.504h-4.7344v-22.305c0-0.73828 0.29688-1.4453 0.82031-1.9609 0.52734-0.51562 1.2344-0.80078 1.9727-0.78516h265.21c0.73438-0.015625 1.4453 0.26953 1.9727 0.78516 0.52344 0.51562 0.82031 1.2227 0.82031 1.9609z"/>
  <path d="m487.53 258.46v-4.7344c-0.94141 0-1.707 0.76172-1.707 1.7031v-36.559h-219.64v36.75c0-0.94141-0.76563-1.7031-1.707-1.7031v4.7344c-1.5703 0-2.8398-1.2734-2.8398-2.8438v-38.691c0-0.74609 0.30078-1.4648 0.83203-1.9922 0.53516-0.52344 1.2578-0.8125 2.0078-0.80078h223.06c0.74609-0.011718 1.4688 0.27734 2.0039 0.80078 0.53516 0.52734 0.83594 1.2461 0.83594 1.9922v38.504c0 1.5703-1.2734 2.8398-2.8398 2.8398z"/>
  <path d="m475.93 216.21h-4.7344v-22.258h-190.57v22.258h-4.7344v-23.961c0-1.5703 1.2734-2.8438 2.8398-2.8438h194.17c1.5703 0 2.8438 1.2734 2.8438 2.8438z"/>
  <path d="m449.88 191.3h-4.7344v-10.844l-14.207-1.1836c-6.4883-0.51953-12.406-1.4688-18.66-2.4609v-0.003906c-11.848-2.1445-23.855-3.2695-35.898-3.3633-12.707 0.125-25.383 1.3438-37.887 3.6484-6.2969 0.99609-12.266 1.8945-18.941 2.4141l-13.07 1.0898v10.703h-4.7344l-0.003906-12.406c-0.027344-1.4766 1.0898-2.7188 2.5586-2.8438l14.727-1.2305c6.2969-0.47266 12.172-1.4219 18.375-2.4141h0.003906c12.867-2.2812 25.906-3.4688 38.973-3.5547 12.41 0.085937 24.785 1.2578 36.988 3.5078 6.1562 0.99609 12.027 1.8945 18.328 2.4141l15.629 1.3242c1.4688 0.125 2.5859 1.3711 2.5547 2.8438z"/>
  <path d="m332.62 177.34-3.3633-3.0312c12.465-12.367 29.477-19.051 47.027-18.473 17.223-0.53125 33.941 5.8672 46.41 17.762l-3.3164 3.125h0.003906c-11.609-10.977-27.133-16.844-43.098-16.293-16.258-0.59766-32.047 5.5156-43.664 16.91z"/>
  <path d="m398.5 160.24h-4.7344c-0.74609-4.2617-4.6445-7.2305-8.9531-6.8203h-17.617c-4.418-0.48047-8.4297 2.6133-9.0898 7.0078h-4.7383c0.26562-3.3945 1.875-6.543 4.4727-8.75 2.5938-2.2031 5.9648-3.2812 9.3555-2.9922h17.617c6.9492-0.52344 13.035 4.6172 13.688 11.555z"/>
  <path d="m275.79 416.96c-4.6484 0-9.1016-1.8477-12.379-5.1406-3.2812-3.2891-5.1133-7.75-5.0977-12.398 0.019532-4.6445 1.8828-9.0898 5.1875-12.359 3.3008-3.2656 7.7695-5.082 12.414-5.0508 4.6484 0.035156 9.0859 1.918 12.344 5.2305 3.2539 3.3164 5.0547 7.7891 5.0039 12.434-0.046875 4.6016-1.9102 9-5.1836 12.234-3.2734 3.2383-7.6875 5.0508-12.289 5.0508zm0-30.402c-5.2148 0-9.9141 3.1289-11.926 7.9375-2.0117 4.8086-0.94141 10.355 2.7188 14.066 3.6562 3.7109 9.1875 4.8633 14.023 2.9219 4.8359-1.9414 8.0352-6.5977 8.1094-11.809 0.050781-3.4609-1.2891-6.7969-3.7188-9.2656-2.4297-2.4648-5.7461-3.8516-9.207-3.8516z"/>
  <path d="m477.73 415.45c-4.2422 0-8.3125-1.6875-11.309-4.6953-2.9922-3.0078-4.668-7.082-4.6484-11.328 0.015625-4.2422 1.7227-8.3047 4.7422-11.289 3.0156-2.9805 7.0977-4.6367 11.344-4.6055 4.2422 0.035156 8.2969 1.7578 11.27 4.7852 2.9688 3.0312 4.6133 7.1211 4.5625 11.363-0.050781 4.1992-1.7539 8.2109-4.7422 11.164-2.9883 2.9531-7.0195 4.6055-11.219 4.6055zm0-27.371c-4.5977 0-8.75 2.7617-10.523 7.0039-1.7773 4.2422-0.83594 9.1328 2.3867 12.414 3.2266 3.2773 8.1055 4.3008 12.375 2.5938 4.2695-1.707 7.0977-5.8125 7.1758-10.41 0.050781-3.0586-1.1289-6.0117-3.2773-8.1914-2.1445-2.1836-5.0781-3.4102-8.1367-3.4102z"/>
  <path d="m325.85 249.65c-5.2266 0-9.9414-3.1484-11.941-7.9805-2.0039-4.832-0.89844-10.391 2.8008-14.09 3.6992-3.6953 9.2578-4.8008 14.09-2.8008s7.9805 6.7148 7.9805 11.945c0 7.1406-5.7891 12.926-12.93 12.926zm0-21.266v0.003907c-3.3984-0.019531-6.4727 2.0156-7.7812 5.1523-1.3086 3.1367-0.59375 6.7539 1.8086 9.1562 2.4023 2.4023 6.0195 3.1172 9.1562 1.8086s5.1719-4.3828 5.1523-7.7812c-0.023438-4.5938-3.7422-8.3125-8.3359-8.3359z"/>
  <path d="m426.15 249.65c-5.2266 0-9.9414-3.1484-11.941-7.9805-2.0039-4.832-0.89844-10.391 2.8008-14.09 3.6992-3.6953 9.2578-4.8008 14.09-2.8008 4.832 2 7.9805 6.7148 7.9805 11.945 0 7.1406-5.7891 12.926-12.93 12.926zm0-21.266v0.003907c-3.3945 0-6.4531 2.0469-7.7461 5.1836-1.2969 3.1406-0.57031 6.75 1.8359 9.1406 2.4102 2.3945 6.0195 3.1016 9.1523 1.7891 3.1289-1.3125 5.1602-4.3828 5.1406-7.7773 0-2.2188-0.88281-4.3477-2.457-5.9102-1.5742-1.5664-3.707-2.4375-5.9258-2.4258z"/>
  <path d="m260.21 348.06h-4.7344v-18.375h-5.2578v18.375h-4.7344v-20.219c-0.027344-0.69922 0.23047-1.3789 0.71094-1.8867 0.48047-0.50781 1.1445-0.80078 1.8438-0.8125h9.4727c0.69922 0.011719 1.3633 0.30469 1.8438 0.8125s0.73828 1.1875 0.71484 1.8867z"/>
  <path d="m287.54 348.06h-4.7344v-18.375h-5.2109v18.375h-4.7344v-20.219c-0.027344-0.69922 0.23047-1.3789 0.71094-1.8867 0.48047-0.50781 1.1484-0.80078 1.8477-0.8125h9.4727-0.003907c0.69922 0.011719 1.3672 0.30469 1.8477 0.8125s0.73828 1.1875 0.71094 1.8867z"/>
  <path d="m314.91 348.06h-4.7344l-0.003906-18.375h-5.207v18.375h-4.7383v-20.219c-0.023437-0.69922 0.23438-1.3789 0.71484-1.8867 0.48047-0.50781 1.1445-0.80078 1.8438-0.8125h9.4727c0.69922 0.011719 1.3633 0.30469 1.8438 0.8125 0.48047 0.50781 0.73828 1.1875 0.71484 1.8867z"/>
  <path d="m342.23 348.06h-4.7344v-18.375h-5.2109v18.375h-4.7344v-20.219c-0.027344-0.69922 0.23047-1.3789 0.71094-1.8867s1.1484-0.80078 1.8477-0.8125h9.4727-0.003907c0.69922 0.011719 1.3672 0.30469 1.8477 0.8125 0.48047 0.50781 0.73437 1.1875 0.71094 1.8867z"/>
  <path d="m369.61 348.06h-4.7344l-0.003906-18.375h-5.2539v18.375h-4.7344l-0.003906-20.219c-0.023437-0.69922 0.23047-1.3789 0.71094-1.8867 0.48438-0.50781 1.1484-0.80078 1.8477-0.8125h9.4727c0.69922 0.011719 1.3633 0.30469 1.8438 0.8125 0.48047 0.50781 0.73828 1.1875 0.71094 1.8867z"/>
  <path d="m396.93 348.06h-4.7344v-18.375h-5.2109v18.375h-4.7344v-20.219c-0.027344-0.69922 0.23047-1.3789 0.71094-1.8867 0.48047-0.50781 1.1445-0.80078 1.8438-0.8125h9.4727c0.69922 0.011719 1.3633 0.30469 1.8438 0.8125 0.48438 0.50781 0.73828 1.1875 0.71484 1.8867z"/>
  <path d="m424.31 348.06h-4.7344l-0.003907-18.375h-5.2578v18.375h-4.7344v-20.219c-0.023437-0.69922 0.23047-1.3789 0.71094-1.8867 0.48047-0.50781 1.1484-0.80078 1.8477-0.8125h9.4727-0.003906c0.69922 0.011719 1.3672 0.30469 1.8477 0.8125s0.73828 1.1875 0.71094 1.8867z"/>
  <path d="m451.77 348.06h-4.7344v-18.375h-5.3516v18.375h-4.7344v-20.219c-0.027344-0.69922 0.23047-1.3789 0.71094-1.8867 0.48047-0.50781 1.1445-0.80078 1.8438-0.8125h9.4727c0.69922 0.011719 1.3633 0.30469 1.8438 0.8125s0.73828 1.1875 0.71484 1.8867z"/>
  <path d="m479 348.06h-4.7344v-18.375h-5.2578v18.375h-4.7344v-20.219c-0.027344-0.69922 0.23047-1.3789 0.71094-1.8867s1.1484-0.80078 1.8477-0.8125h9.4727-0.003906c0.69922 0.011719 1.3672 0.30469 1.8477 0.8125 0.48047 0.50781 0.73828 1.1875 0.71094 1.8867z"/>
  <path d="m506.33 348.06h-4.7344l-0.003906-18.375h-5.207v18.375h-4.7344l-0.003906-20.219c-0.023438-0.69922 0.23437-1.3789 0.71484-1.8867s1.1445-0.80078 1.8438-0.8125h9.4727c0.69922 0.011719 1.3633 0.30469 1.8438 0.8125 0.48047 0.50781 0.73828 1.1875 0.71094 1.8867z"/>
  <path d="m395.99 248.13h-37.887c-6.0078-0.38672-10.68-5.3711-10.68-11.387 0-6.0195 4.6719-11.004 10.68-11.391h37.887c3.1445-0.20312 6.2383 0.90625 8.5391 3.0625 2.3008 2.1602 3.6055 5.1719 3.6055 8.3281 0 3.1523-1.3047 6.168-3.6055 8.3242-2.3008 2.1602-5.3945 3.2656-8.5391 3.0625zm-37.887-18.234v0.003906c-3.5625 0.29688-6.2969 3.2695-6.2969 6.8438 0 3.5703 2.7344 6.5469 6.2969 6.8438h37.887c1.9102 0.15625 3.8047-0.49219 5.2188-1.793 1.4141-1.3008 2.2148-3.1328 2.2148-5.0508 0-1.9219-0.80078-3.7539-2.2148-5.0547-1.4141-1.3008-3.3086-1.9492-5.2188-1.7891z"/>
 </g>
</svg>
