<?xml version="1.0" encoding="UTF-8"?>
<svg width="752pt" height="752pt" version="1.1" viewBox="0 0 752 752" xmlns="http://www.w3.org/2000/svg">
 <path d="m563.82 344.45-180.55-153.62c-4.0273-3.4141-9.9258-3.4141-13.949 0l-181.14 154.29c-4.5195 3.8477-5.0703 10.637-1.2227 15.156 2.1328 2.5078 5.1484 3.7891 8.1875 3.7891 2.4648 0 4.9531-0.84766 6.9648-2.5664l1.4219-1.2227v192.71c0 5.9414 4.8164 10.754 10.754 10.754h322.75c5.9414 0 10.754-4.8164 10.754-10.754v-193.93l2.1133 1.7969c4.5195 3.8477 11.309 3.2969 15.156-1.2227 3.8438-4.543 3.293-11.332-1.2266-15.18zm-145.13 197.11h-86.055v-125.5h86.055zm107.58 0.66797h-86.055v-136.93c0-5.9414-4.8164-10.754-10.754-10.754l-107.58 0.003906c-5.9414 0-10.754 4.8164-10.754 10.754v136.93l-86.055-0.003907v-200.27l151.23-128.81 149.97 127.59z"/>
</svg>
