<?xml version="1.0" encoding="UTF-8"?>
<svg width="752pt" height="752pt" version="1.1" viewBox="0 0 752 752" xmlns="http://www.w3.org/2000/svg">
 <path d="m266.04 431.75-8.6289-24.688c-1.1445-0.41797-1.5469-1.6211-1.6797-3.8672-0.24219-4.1602-1.8164-8.8984-4.332-13.59-2.1484-4.0078-4.9766-7.9609-8.25-11.488l19.527 55.879c1.1289-0.75 2.2227-1.5078 3.3594-2.25zm-9.4961-94.316c0.77734-1.4883 3.0391-0.30859 2.2617 1.1836-0.70703 1.3477-1.25 2.6367-1.6719 4.0977 0.61328 0.28125 1.2266 0.58594 1.832 0.90625 2.1602 1.1445 4.2734 2.543 6.3086 4.1602 4.3672 0.15234 8.8711-0.046875 13.395-0.51562-1.7539-9.7305 2.168-14.57 6.082-19.402 1.8086-2.2305 3.6133-4.457 4.7305-7.1562 0.64063-1.5547 3.0039-0.58203 2.3633 0.97266-0.55859 1.3516-1.25 2.5703-2.0117 3.7148 8.8086 1.5859 18.406 1.7656 27.742 1.0781-1.4062-7.9531 1.2344-12.41 4.3359-16.469 1.9883-2.6055 4.2188-5.0859 5.4688-8.1602 0.63281-1.5625 3.0078-0.59766 2.375 0.96094-0.64844 1.5977-1.4883 3-2.4102 4.3164 8.5586 1.9844 17.961 2.6484 27.176 2.4531-1.6133-10.207 3.375-13.035 7.0039-18.723 0.70312-1.0977 1.9062-3.1562 2.0195-3.8867-45.812 15.641-88.289 36.18-116.45 53.086 2.5625 0.17187 5.1328 0.74609 7.6641 1.6797 0.45312-1.5195 1.043-2.8906 1.7812-4.3008zm24.523 69.191-3.7109-10.621-3.4062 2.1172 5.625 16.094c0.50391-2.0859 0.92969-4.1641 1.2773-6.2383 0.074219-0.44922 0.14844-0.89844 0.21484-1.3477zm-2.2305-11.543 2.7227 7.793c0.36328-3.293 0.53906-6.5664 0.53906-9.8203zm-0.035156 22.094-6.3359-18.137-3.4062 2.1172 7.7773 22.258c0.73828-2.0859 1.3906-4.1641 1.9648-6.2422zm-3.043 8.3242-8.1836-23.422-3.4062 2.1172 8.2031 23.469c1.1289-0.72266 2.2617-1.4453 3.3906-2.1641zm-4.8633 3.1094-8.2109-23.492c-1.0391 0.64453-2.3555 1.5156-3.4844 1.8945l8.3125 23.781c1.1133-0.74219 2.2578-1.457 3.3828-2.1836zm-30.523-53.277c-1.8008-1.6758-3.7227-3.2344-5.7578-4.6133l23.234 66.488c1.1172-0.74609 2.2383-1.4922 3.3633-2.2383zm-8.0742-6.0703c-1.6328-0.94922-3.3008-1.7578-4.9805-2.3906l25.707 73.559c1.1172-0.75 2.2383-1.4961 3.3633-2.2461l-24.086-68.922zm-7.0273-3.0742c-1.4766-0.42969-2.9648-0.71875-4.4453-0.84766l27.371 78.328c1.1172-0.75 2.2344-1.5039 3.3594-2.2578l-26.289-75.223zm-6.2773-0.92969c-0.35938 0-0.71484 0.011719-1.0703 0.03125-0.98047 0.058593-1.9531 0.19141-2.9219 0.40625l28.383 81.219c1.1133-0.75391 2.2305-1.5117 3.3555-2.2656zm-5.6406 0.89062c-1.5664 0.51172-2.2656 0.90625-3.5312 1.7578l28.754 82.281c1.1133-0.75781 2.2305-1.5195 3.3516-2.2773l-28.57-81.758zm-4.9961 2.7383-3.3594 2.25c1.8281 5.207 3.7461 10.613 5.668 16.02 2.168 6.1055 4.3398 12.207 6.4805 18.344 2.2109 2.7578 4.3164 5.7188 6.2539 8.8359 0.80078 1.2891 1.5195 2.5469 2.1562 3.7734l-17.203-49.227zm21.238 60.777c0.68359 4.1016 0.44531 7.8047-0.36719 11.191 0.6875 1.957 1.4141 3.9961 2.168 6.1133 0.81641 2.2852 1.5977 4.457 2.3477 6.5195 1.1172-0.76953 2.2422-1.5391 3.3711-2.3086zm-26.062-57.547-3.3633 2.2539 7.3359 20.988c2.2188 1.9453 4.4219 4.1289 6.5586 6.5078-1.6562-4.7109-3.332-9.4258-5.0078-14.145-1.8242-5.1367-3.6484-10.27-5.5234-15.609zm24.875 71.547c-0.61719 1.7891-1.3828 3.4883-2.2344 5.1094l2.8008 8.0117c1.1016-0.76172 2.207-1.5273 3.3203-2.293-0.88672-2.4375-1.7227-4.7578-2.5039-6.9453-0.44922-1.2578-0.90625-2.5508-1.3789-3.8828zm-7.3711-21.535c-0.83984-2.5195-1.6953-5.0391-2.5586-7.5625-2.4141-3.6523-5.0469-7.043-7.7812-10.078l6.9414 19.867c1.125-0.73828 2.2578-1.4805 3.3984-2.2227zm-22.328-46.777-3.3594 2.25 4.1367 11.832c1.8047 1.082 3.6406 2.3555 5.4766 3.8047l-6.25-17.891zm26.355 75.414c-0.85547 1.457-1.7656 2.8477-2.6836 4.1875l1.8047 5.1641c1.1055-0.77344 2.2148-1.5508 3.332-2.3281l-2.457-7.0273zm-8.8945-25.449-8.3281-23.828c-1.9805-1.9688-3.9922-3.7422-5.9922-5.2852l10.953 31.344c1.1133-0.74219 2.2383-1.4844 3.3672-2.2305zm-22.285-46.734-3.3594 2.25 1.8672 5.3398c1.5781 0.48828 3.1992 1.1641 4.8516 2.0117l-3.3555-9.6055zm27.293 78.102c-0.29688 0.42188-0.59375 0.83984-0.88281 1.2539-0.65234 0.92188-1.2891 1.8203-1.8828 2.6953l0.99609 2.8555c1.1016-0.78125 2.2109-1.5625 3.3281-2.3477l-1.5547-4.4531zm-9.8398-28.16-11.906-34.074c-1.3164-0.89453-2.6211-1.6836-3.9023-2.3555-0.43359-0.22656-0.86328-0.44141-1.2891-0.64062l13.742 39.324c1.1133-0.75 2.2305-1.5 3.3594-2.2539zm-22.273-46.707-3.3594 2.25 0.42188 1.207c0.070312-0.003906 0.14062-0.007813 0.21484-0.007813 1.3008-0.042969 2.6602 0.09375 4.0664 0.39062zm28.172 80.613c-0.88281 1.418-1.6016 2.7656-2.043 4.0586 0.91797-0.65625 1.8398-1.3164 2.7695-1.9766zm-10.719-30.668-14.395-41.188c-1.5898-0.57812-3.1016-0.92969-4.5078-1.0273l15.551 44.496c1.1094-0.75781 2.2266-1.5156 3.3516-2.2773zm-22.277-46.711c-0.25 0.18359-0.49609 0.38672-0.74609 0.60937 0.29297-0.074218 0.58984-0.14062 0.89062-0.19141l-0.14453-0.41406zm17.469 49.984-15.891-45.473c-1.3633 0.14062-2.6016 0.58984-3.6641 1.3789l16.215 46.395c1.1055-0.76562 2.2188-1.5352 3.3398-2.3047zm-4.793 3.3125-16.176-46.289c-1.1211 1.332-2.1406 3.9336-2.2891 5.3281l15.129 43.289c1.1016-0.77344 2.2148-1.5508 3.332-2.3281zm-4.7812 3.3516-14.273-40.84c-0.5625 5.3008 0.13672 10.461 1.3164 15.637l9.6289 27.559c1.0977-0.78516 2.207-1.5703 3.3242-2.3555zm-4.7656 3.3906-3.1641-9.0508c0.74219 3.957 0.99609 7.6992 0.24219 11.152l0.14453-0.10547c0.91797-0.66406 1.8438-1.3281 2.7773-1.9961zm98.891-47.844c9.2734-4.9336 18.23-9.7734 26.953-14.484 49.367-26.676 91.27-49.316 149.21-66.402 65.184-19.223 132.78-16.738 129.56 67.27-0.32031 8.3125-1.2969 16.848-2.7461 25.27 9.0352-35.066 11.727-74.957-9.3906-106.34-2.5391-3.7734-5.3359-7.2383-8.3633-10.414-1.2188 0.19531-10.047-5.2188-11.602-6.2031-0.3125 0.46094-0.90234 0.67969-1.457 0.5-5.5352-1.8203-11.211-4.8555-16.273-7.75 0.30859 0.92578-0.51172 1.8672-1.4883 1.6484-5.3672-1.1836-10.898-3.0352-16.172-5.1133 1.0586 0.73047 0.48438 2.4219-0.81641 2.332-7.9453-0.58594-16.496-2.625-25.02-5.3164-7.9961-2.5234-15.984-5.625-23.43-8.6328-0.76172 1.9375-1.3594 4.4766-0.5 8.0859 10.254 2.6719 20.523 3.8008 31.125 3.5977 1.6797-0.027343 1.7188 2.5273 0.039062 2.5547-11.082 0.21094-21.797-1.0039-32.492-3.8555-0.039063-0.007812-0.074219-0.019531-0.10938-0.03125-6.8203-1.8281-13.98-4.3867-21.66-7.875-1.6562 3.25-2.3711 6.6953-1.7852 10.336 11.469 2.0938 23.363 2.7773 34.992 1.9805 1.6797-0.11328 1.8516 2.4414 0.17188 2.5547-12.098 0.82812-24.488 0.078125-36.41-2.168-0.058594-0.007813-0.11719-0.019531-0.17578-0.03125-7.8672-1.4922-15.969-3.7344-24-6.9336-2.1133 3.0742-4.0156 6.3281-2.8203 12.145 12.68 1.0234 26.566 0.58203 39.078-1.6719 1.6523-0.29688 2.1055 2.2188 0.44922 2.5156-12.617 2.2734-26.594 2.7383-39.379 1.7344-9.3828-0.73438-18.871-2.3672-27.383-5.2852-3.418 4.6797-5.1367 7.875-3.9961 13.918 3.0391 0.082031 6.0664 0.066406 9.0391-0.027344 16.457-0.51562 31.227-3.4414 38-6.2227 1.5547-0.64062 2.5273 1.7227 0.97266 2.3633-6.9883 2.8672-22.125 5.8867-38.891 6.4102-12.297 0.38281-25.504-0.56641-37.078-3.8906-0.27344 0.36328-0.54688 0.72266-0.82031 1.0859-2.8477 3.7383-5.6992 7.4844-4.4961 14.598 12.969-0.49219 32.383-2.957 43.914-8.3203 1.5273-0.70312 2.6016 1.6172 1.0703 2.3242-11.781 5.4805-31.434 8.0273-44.656 8.5469-6.5781 0.25781-26.219-0.20313-31.742-2.7188-0.57812 0.73828-1.1602 1.4688-1.7266 2.2109-2.7773 3.6523-5.1172 7.6719-3.8203 14.719 12.75-1.1523 31.766-4.5469 42.898-10.398 1.4883-0.78516 2.6797 1.4805 1.1914 2.2617-9.0273 4.7461-27.789 9.0781-45.988 10.535-10.977 0.87891-21.75 0.64844-30.059-1-0.47656 0.61328-0.96484 1.2109-1.4492 1.8125-3.5586 4.3906-7.1211 8.7852-5.5195 17.496 16.195-2.0352 41.574-9.1914 54.438-18.293 1.3672-0.96875 2.8398 1.1172 1.4727 2.082-15.922 11.266-49.02 19.609-68.84 19.629 1.1328 1.0625 2.2305 2.1914 3.2891 3.3828 8.3555 9.3828 14.344 22.641 14.738 36.496 0.066407 2.3203 0.050781 4.6445-0.054687 6.9766zm303.16-13.707c3.1523-82.113-62.961-83.398-126.28-64.727-57.676 17.008-99.473 39.59-148.72 66.203-9.125 4.9297-18.504 10-28.344 15.223-0.21484 2.8008-0.55469 5.6133-1.0312 8.4375-0.72266 4.2773-1.7539 8.5898-3.1289 12.938 45.516-28.504 90.258-51.77 130.13-66.754 44.684-16.789 131.52-39.996 151.87 24.562 9.7344 30.875-0.23437 68.762-12.82 97.648-1.1211 2.5703-5.0273 0.86719-3.9062-1.7031 12.137-27.852 22.039-64.906 12.652-94.676-19.383-61.484-104.45-37.562-146.29-21.84-49.402 18.562-101.22 47.352-145.17 76.477 0.22656 1.2656 0.10547 2.5664-0.24609 3.7969-0.50391 1.7695-1.5234 3.4336-2.6719 4.5938 1.0352 0.85547 2.0508 2.0586 2.3516 3.7695 41.137-26.688 84.285-50.215 122.86-66.758 29.766-12.762 80.871-31.219 113.78-25.73 15.293 2.5508 26.824 9.5586 34.695 19.738 21.566 27.898 13.488 68.18 0.19531 97.5-0.69141 1.5352-3.0234 0.48437-2.332-1.0508 12.859-28.363 21.027-67.832 0.11328-94.887-7.4766-9.6758-18.473-16.34-33.09-18.777-2.9258-0.48828-5.9961-0.80469-9.2148-0.94531 4.0273 0.63281 7.7109 1.582 11.062 2.8281 10.102 3.7578 17.18 10.164 21.66 18.605 12.543 23.633 2.9023 59.645-5.7969 83.031-0.97656 2.625-4.9648 1.1367-3.9883-1.4844 8.1953-22.031 17.863-57.219 6.0156-79.543-4-7.5312-10.328-13.254-19.375-16.621-5.5586-2.0664-12.148-3.2578-19.859-3.4531-22.434-0.5625-55.148 8.8242-92.195 24.711-39.332 16.867-83.438 41.023-125.26 68.387-3.5586 2.3281-5.8594 3.5352-10.602 1.4062-2.6055-1.168-5.2109-3.2891-7.2461-6.0078-0.054688-0.070312-0.10547-0.14453-0.16016-0.21484-8.1367 5.4883-16.07 10.918-23.68 16.266-13.961 9.8047-11.336 7.1914-22.395 16.238-2.1719 1.7773-4.875-1.5273-2.7031-3.3047l9.9883-7.8086c0.085938-4.6719 2.918-9.0117 6.5312-14.121 5.3125-7.5 11.793-16.66 7.1719-30.195-13.395 8.7031-25.617 17.086-36.914 25.254-2.6055 1.8828-5.1641 3.7539-7.6758 5.6172-8.2031 6.0781-0.98828 0.3125-8.9336 6.7227-2.1836 1.7539-4.8516-1.5664-2.6719-3.3203l8.5352-6.5859c7.3789-5.6953 4.0508-15.941 1.0586-26.551-2.7969-9.918-6.4141-22.23-3.4492-32.324 1.7109-5.832 5.0156-10.762 8.4648-12.949l24.832-16.641c0.30469-0.20313 0.63281-0.45703 0.97266-0.58984 0.37891-2.8359 2.4531-4.5078 4.8711-5.7461 8.0117-4.832 10.637-6.4727 17.043-12.172 1.5195-1.3516 3.1055-2.4609 4.7344-3.3398 33.535-21.797 96.449-52.41 160.68-70.016 37.727-10.34 75.945-16.207 109.02-13.195 33.41 3.043 61.59 15.129 78.824 40.738 22.258 33.074 19.234 75.051 9.418 111.92-7.2305 27.16-18.727 53.469-26.762 70.512-1.1953 2.5352-5.0508 0.71484-3.8555-1.8203 14.742-31.273 25.895-62.066 27.246-97.266zm-24.555-97.559c-3.8047-3.1602-7.8906-5.957-12.234-8.4141 0.95703 0.80469 1.9805 1.6094 3.0586 2.4141 2.7305 2.0352 5.8281 4.0547 9.1758 6zm-19.621-12.16c-2.2852-1.0352-4.6328-1.9883-7.0312-2.8672 0.03125 0.71094 0.29687 1.9648 0.1875 2.5547 5.0586 3.082 10.34 6.0977 15.746 8.5117-3.6719-2.7383-6.7266-5.5156-8.9023-8.1953zm-9.543-1.9844c-0.042969-0.59375-0.066407-1.1914-0.0625-1.7852-1.7148-0.57813-3.4531-1.1172-5.2148-1.6211 1.6094 1.0664 3.3906 2.2188 5.2812 3.4062zm-12.379-5.2031c-2.6289-0.58594-5.3047-1.0977-8.0273-1.5391-0.10938 1.0312-0.15234 2.2422 0.070312 3.4414 7.5742 3.4883 16.492 7.1367 24.988 9.1211-2.875-1.6875-15.16-8.9883-17.031-11.023zm-10.668 0.63672c-0.039063-0.92578 0.015625-1.7969 0.10156-2.5664-2.3594-0.34375-4.75-0.63281-7.1719-0.875 2.1055 1.043 4.4883 2.2148 7.0703 3.4414zm-14.027-3.9922c-0.65625-0.039062-1.3164-0.074219-1.9805-0.10938-0.5 1.8125-0.56641 3.8906-0.10156 5.707 0.95703 0.31641 1.918 0.62891 2.875 0.93359 6.3594 2.0078 12.715 3.6406 18.789 4.5625 1.9141 0.28906 4.1953 0.60938 5.7461 0.65625-7.8125-3.1094-15.035-6.6875-20.316-9.3047-1.9648-0.97266-3.6523-1.8086-5.0117-2.4414zm-4.6758 4.7188c-0.25391-1.4922-0.25-2.7773-0.089844-3.9375 0.046875-0.34766 0.10938-0.67969 0.17969-1-4.4141-0.16016-8.9062-0.17578-13.469-0.058594 4.3516 1.7188 8.8438 3.4258 13.379 4.9961zm-21.992 2.9492c-0.54297-3.2422-0.0625-5.6758 0.62891-7.6055-5.6992 0.33203-11.488 0.85938-17.344 1.5625 5.8477 2.5352 11.395 4.5195 16.719 6.043zm-24.77 4.9727c-0.39453-3.5547 0.27734-6.9766 1.7734-10.199-7.582 1.0625-15.258 2.4023-22.977 3.9844 7.0859 2.7773 14.227 4.7969 21.203 6.2148zm-28.238 7.8164c-1.0977-6.3203 0.97656-9.8828 3.2812-13.242-8.2656 1.7734-16.574 3.8125-24.863 6.0703-0.4375 0.89844-0.93359 1.7305-1.4648 2.5273 7.1992 2.3867 15.109 3.8555 23.047 4.6445zm-31.195 11.359c-1.2422-7.418 1.5977-11.301 4.4336-15.18 0.57422-0.78516 1.1484-1.5703 1.6797-2.3828-9.7305 2.7266-19.422 5.7461-28.973 8.9805 0.042969 0.011719 0.085938 0.027344 0.12891 0.042969 0.65625 0.26172 0.97656 1.0039 0.71484 1.6562-0.49219 1.2383-1.1016 2.3516-1.7734 3.3945 7.4844 2.0586 15.652 3.125 23.789 3.4883zm-128.38 109.05c4.8516-21.891-25.285-53.609-45.012-43.746-1.6641 1.0039-3.4609 1.8281-3.6445 4.0273 2.3008-1 4.6641-1.5391 7.0547-1.6758 7.0391-0.41016 14.238 2.6602 20.574 7.5352 6.25 4.8086 11.688 11.398 15.297 18.125 2.6875 5.0078 4.3672 10.117 4.6328 14.652 0.066406 1.1133-0.09375 1.582-0.011719 1.6016 0.11719 0.027344 0.48828-0.15625 1.1133-0.51953zm-37.859-48.059c20.402-0.55469 43.375 25.609 40.766 46.27l19.477-12.102c-1.2109-5.8789-4.1367-12.031-8.0938-17.754-4.7188-6.8203-10.895-13.012-17.398-17.406-6.4102-4.332-13.094-6.8984-18.926-6.5547-2.0938 0.125-4.0781 0.625-5.8984 1.5625l-9.9219 5.9844zm31.094 89.762 0.03125 0.039063c1.6016 2.1406 3.6055 3.7891 5.5781 4.6719 2.207 0.99219 6.2891 0.99219 5.1953-2.3945-0.33594-1.043-1.332-1.668-1.9102-2.0273-1.2305-0.76953-2.0469-1.2773-1.582-2.9297 0.54297-1.9297 2.8789-1.6523 4.0039-4.918-3.8047 2.5273-7.5781 5.0508-11.316 7.5586zm-14.797-99.887c6.2695-0.17578 13.258 2.5352 19.879 7.0117 6.7539 4.5664 13.168 10.996 18.07 18.078 1.6992 2.457 3.2188 4.9961 4.5078 7.5703-2.2812-8.3594-6.5703-16.023-11.891-22-3.4688-3.8945-7.3711-7.0625-11.43-9.2148-3.9688-2.1055-8.0703-3.2383-12.027-3.1289-2.4219 0.070312-4.8125 0.60938-7.1094 1.6836z"/>
</svg>
