<?xml version="1.0" encoding="UTF-8"?>
<svg width="752pt" height="752pt" version="1.1" viewBox="0 0 752 752" xmlns="http://www.w3.org/2000/svg">
 <path d="m206.38 294c36.301-2.2578 76.281 4.25 113.92 3.9102 57.555-0.51562 103.88-12.121 159.18-27.141 25.555-6.9414 56.418-16.914 82.68-17.512 15.316-0.34766 30.109 2.5078 39.121 12.414 16.402 18.023 5.1172 35.324-9.7148 48.824-6.3164 5.75-13.234 10.75-18.801 14.777-3.625 2.6211-7.2266 5.2734-10.797 7.9727 0.125 8.582-3.0781 14.199-9.5117 19.77l-39.449 34.148c-8 6.9258-15.262 9.9805-25.727 11.328-20.652 20.73-39.84 42.609-55.871 64.398-5.9023 8.0234-19.613 7.9648-26.949 2.7305-9.8477-8.2656-18.688-9.207-31.488-6.8906-14.355 2.5977-30.156 5.4531-40.039 15.164-4.2812 4.2031-10.062 12.895-14.316 16.176-11.805 9.125-26.504 4.3789-30.855-9.0234-0.97266-2.9922-1.6523-6.4453-1.9922-10.324l-2.8672-32.867c-2.3047-0.83203-4.6133-1.6836-6.9219-2.5547-40.5 0.13281-80.211 4.082-89.734-45.457-10.699-7.3047-21.031-15.328-30.387-24.293-5.9766-5.7266-11.957-10.809-13.031-19.496-1.0312-8.3242 2.0117-17.402 7.0547-25.547 13.305-21.48 32.043-28.984 56.492-30.508zm218.96 84.688c-0.41406 0.83594-1.6836 0.20703-1.2695-0.62891 8.918-17.988 25.91-30.246 43.535-38.883 0.83594-0.41016 1.457 0.86328 0.62109 1.2695-17.324 8.4883-34.117 20.551-42.887 38.238zm131.69-37.672c-22.305 17.18-43.664 35.844-63.77 55.547 6.7148-1.7148 11.363-4.3906 16.633-8.9531l39.312-34.027c4.1133-3.5586 7.0234-7.0781 7.8242-12.57zm-105.62-40.637c4.6641 1.4766 5.1523 5.3633 0.99609 7.9453-3.5859 2.2266-9.5938 2.9844-13.617 1.7109-4.6641-1.4766-5.1523-5.3633-0.99609-7.9453 3.5859-2.2266 9.5938-2.9844 13.617-1.7109zm-0.71094 2.2578c-3.3633-1.0625-8.6602-0.40234-11.656 1.4609-2.418 1.5039-2.2539 2.8242 0.46094 3.6797 3.3633 1.0625 8.6602 0.40234 11.656-1.4609 2.418-1.5039 2.2539-2.8242-0.46094-3.6797zm-55.609 10.391c4.7227 2.1719 4.7227 6.3594 0 8.5312-4.1562 1.9102-10.707 1.9102-14.859 0-4.7227-2.1719-4.7227-6.3594 0-8.5312 4.1562-1.9102 10.707-1.9102 14.859 0zm-0.98047 2.1445c-3.5156-1.6172-9.3828-1.6172-12.898 0-2.8906 1.332-2.8906 2.9102 0 4.2383 3.5156 1.6172 9.3828 1.6172 12.898 0 2.8906-1.332 2.8906-2.9102 0-4.2383zm-57.039 2.8906c4.8984 2.5078 4.7188 6.8633-0.375 8.9531-4.4922 1.8438-11.473 1.5469-15.793-0.66406-4.8984-2.5078-4.7188-6.8633 0.375-8.9531 4.4922-1.8438 11.473-1.5469 15.793 0.66406zm-14.895 1.5195c-3.2188 1.3203-3.3008 3.082-0.19922 4.668 3.6992 1.8945 9.9766 2.1562 13.82 0.58203 3.2188-1.3203 3.3008-3.082 0.19922-4.668-3.6992-1.8945-9.9766-2.1562-13.82-0.58203zm263.09-29.48c2.625 3.9805 1.7188 10.109-1.1797 13.668-2.9102 3.5664-7.668 4.2148-10.379 0.10156-2.625-3.9805-1.7188-10.109 1.1797-13.668 2.9102-3.5664 7.668-4.2148 10.379-0.10156zm-8.5469 1.5898c-2.2383 2.7461-3.0938 7.7734-1.043 10.883 1.8125 2.75 4.6992 2.0078 6.5781-0.29688 2.2383-2.7422 3.0938-7.7734 1.043-10.883-1.8125-2.75-4.6992-2.0078-6.5781 0.29688zm-219.54 104.83c4.1953 3.2812 4.1953 8.7812 0 12.062-4.0352 3.1562-10.461 3.1562-14.496 0-4.1953-3.2812-4.1953-8.7812 0-12.062 4.0352-3.1562 10.461-3.1562 14.496 0zm-1.4531 1.8594c-3.1719-2.4805-8.4219-2.4805-11.594 0-2.9727 2.3281-2.9727 6.0156 0 8.3438 3.1719 2.4805 8.4219 2.4805 11.594 0 2.9727-2.3281 2.9727-6.0156 0-8.3438zm-100.02-41.207c4.3789 2.918 3.7305 8.0039-0.10547 11.113-3.8242 3.1016-10.395 4.0117-14.637 1.1836-4.3789-2.918-3.7305-8.0039 0.10547-11.113 3.8242-3.1016 10.395-4.0117 14.637-1.1836zm-13.148 3.0156c-2.5781 2.0898-3.3164 5.2969-0.28906 7.3125 3.3828 2.2539 8.832 1.3984 11.844-1.043 2.5781-2.0898 3.3164-5.2969 0.28906-7.3125-3.3828-2.2539-8.832-1.4023-11.844 1.043zm-48.664-49.469c5.0781 1.5977 5.25 5.8398 1.0117 8.7305-3.8984 2.6602-10.699 3.832-15.25 2.4023-5.082-1.5977-5.2461-5.8398-1.0117-8.7305 3.8984-2.6602 10.699-3.832 15.25-2.4023zm-13.918 4.3555c-2.5898 1.7656-2.8008 3.5195 0.38281 4.5195 3.8711 1.2188 9.9062 0.16016 13.215-2.0977 2.5898-1.7656 2.8008-3.5195-0.38281-4.5195-3.8711-1.2188-9.9062-0.16016-13.215 2.0977zm84.062 119.54c-5.6953-2.3125-11.344-4.7266-16.949-7.25-16.605-0.57422-37.254-4.332-43.242-22.34-4.0625-2.4141-8.0352-4.8828-11.91-7.4062 8.7383 34.633 34.895 36.969 72.102 36.996zm-29.691-13.211c-7.9023-3.8398-15.645-7.8867-23.137-12.117 5.2188 7.4648 14.531 10.633 23.137 12.117zm-21.617-16.68c11.922 6.7656 24.219 12.918 36.734 18.531 14.77 6.625 29.891 12.535 45.234 17.695 28.527 9.5977 51.844 12.664 81.531 15.078 10.785 0.87891 19.254 0.55078 28.25 7.6484-1.7344-3.8398-2.582-8.3672-2.9922-12.586-0.29297-3.0898 4.4062-3.5352 4.6992-0.44531 0.46484 4.7852 1.5156 9.9453 3.9102 13.48 3.9648 5.8555 13.605 5.293 17.523-0.035156 16.184-21.996 35.547-44.074 56.383-64.984 26.629-26.727 55.438-51.551 86.008-73.664 5.4766-3.9609 12.281-8.8828 18.395-14.445 13.082-11.906 23.18-27.008 9.4023-42.148-7.918-8.6992-21.422-11.199-35.535-10.879-25.684 0.58594-56.504 10.566-81.535 17.363-55.73 15.137-102.38 26.77-160.38 27.289-37.535 0.33594-77.551-6.1602-113.68-3.9102-22.891 1.4258-40.277 8.125-52.758 28.27-4.5195 7.293-7.2578 15.312-6.3711 22.492 0.89063 7.1875 6.668 11.934 11.605 16.664 8.293 7.9453 17.359 15.125 26.754 21.715 8.6445 6.0625 17.637 11.656 26.82 16.867zm150.78 54.984c-6.3555-0.57031-12.645-1.2188-19.066-2.0898-4.1758 1.3438-7.5117 2.8164-10.566 4.707-3.0625 1.8945-5.8906 4.2422-9.0312 7.3281-4.5469 4.4688-6.25 8.1172-10.707 12.695-9.5859 8.6797-15.844 2.3516-16.801-8.625l-2.418-27.711c-2.3594-0.78516-4.7227-1.5898-7.0938-2.418l2.6797 30.719c0.30859 3.5352 0.91406 6.6328 1.7695 9.2695 3.3242 10.25 14.277 13.855 23.473 6.7461 3.9648-3.0625 9.8789-11.867 13.891-15.805 8.8516-8.6953 21.414-12.309 33.867-14.816zm-28.309-3.5c-10.895-1.8477-22.398-4.4961-35.387-8.6094l2.2422 25.715c0.50781 5.8242 2.7383 11.789 8.6992 5.7383 4.4805-4.6016 6.207-8.2773 10.781-12.77 3.3828-3.3203 6.4648-5.8711 9.8633-7.9766 1.2227-0.75781 2.4805-1.4531 3.8008-2.0977zm-95.941-60.664c-19.156-10.004-38.297-21.375-54.91-35.234-2.6602-2.2188-5.4414 4.4531-2.2266 7.2148 16.941 14.578 36.762 26.625 56.648 36.727 3.2188 1.6133 5.9766-5.8438 0.49219-8.707zm-52.84-37.816c16.297 13.602 34.926 25.055 53.859 34.625 9.957 5.0352 4.2578 18.539-3 14.852-20.086-10.207-40.09-22.375-57.211-37.086-6.957-5.9727 0.66016-17.605 6.3555-12.391zm-11.238-26.477c-0.54688-1.4531 1.6641-2.2852 2.2109-0.83203 5.3359 14.07 30.188 32.051 62.262 48.582 34.414 17.742 77.062 33.723 112.9 41.414 11.086 2.3789 27.012 4.2734 37.832 0.73828 5.0977-1.6641 8.6367-4.4922 9.5625-8.7969 2.9688-13.84 1.9023-20.578 8.8047-34.504 12.02-24.242 34.906-40.766 58.66-52.398 23.906-11.711 50.391-19.496 76.285-25.426 1.5156-0.34766 2.043 1.957 0.52734 2.3047-25.699 5.8828-52.051 13.617-75.777 25.238-23.254 11.391-45.809 27.59-57.578 51.328-6.7852 13.68-5.6953 20.355-8.6133 33.949-1.125 5.2461-5.2422 8.6289-11.145 10.555-11.266 3.6797-27.52 1.8008-39.051-0.67578-36.035-7.7305-78.906-23.797-113.49-41.625-32.547-16.777-57.832-35.195-63.391-49.852z"/>
</svg>
