<?xml version="1.0" encoding="UTF-8"?>
<svg width="752pt" height="752pt" version="1.1" viewBox="0 0 752 752" xmlns="http://www.w3.org/2000/svg">
 <path d="m405.68 150.17c87.125 9.2852 149.42 56.539 151.11 148.79 0.44531 24.434-1.6172 53.402-5.4102 77.75-0.60547 3.8945-1.2773 7.6016-2.0156 11.031-1.9219 8.9258-4.8203 15.07-8.0977 18.801-4.1953 5.3672-14.02 12.777-25.719 21.602-21.426 16.16-49.273 37.168-58.238 57.219-1.3516 3.0273-1.0156 2.0273 0.34766 4.7773 5.3086 10.711-1.2812 21.172-15.266 19.383-3.9922-0.51172-2.875-1.3086-4.1562 2.7734-3.9531 12.574-12.172 30.582-23.789 47.746-9.957 14.711-22.438 28.855-36.918 38.539-10.191 6.8164-27.527 7.4531-29.582-7.1797-1.4141-10.055 7.3359-16.258 14.246-21.727 3.1367-2.4805 6.0273-4.7695 9.2422-7.9336 8.0234-7.8984 15.477-18.07 21.746-28.406 6.3008-10.395 11.391-20.934 14.652-29.492 1.4297-3.7578 1.4688-2.5039-1.6172-4.3555-10.633-6.3867-8.7031-18.367 1.2695-23.82 2.9023-1.5859 2.4414-0.39844 2.6602-3.9414 1.8047-29.48 1.6953-68.414-4.6602-97.344-1.0664-4.8516-0.10156-4.793-4.6797-5.4844-2.4766-0.375-4.9727-0.72266-7.5117-1.082-3.75-0.53125-2.5312-0.71484-3.9375 2.793-8.4102 20.984-34.07 26.434-55.301 31.512-10.672 2.5742-20.344 4.9062-26.016 8.6172-4.707 3.0781-2.5781 2.3672 0.58203 4.2969 13.57 8.2773 12.832 31.809-10.461 27.07-10.57 40.387-3.8711 72.301 0.13281 87.297 2.2227 8.3203 4.7266 16.594-2.9531 23.812-3.3594 3.1602-7.9883 4.6484-12.539 3.6953-5.4336-1.1406-10.699-5.7031-13.43-14.879-9.5469-32.102-8.4922-74.949 0.80078-107.05-20.75-6.4883-13.605-25.605 1.0703-28.426 4.2812-0.82422 3.8359 0.85547 3.4688-4.1367-0.89453-12.16-3.3945-30.156-9.5117-45.859-3.8945-10.004-9.2578-19.047-16.594-24.93-3.6211-2.9023-4.3242-2.8867-8.4727-4.5391-20.082-8.0039-34.758-15.898-39.574-22.52-4.5234-6.2188-6.1797-14.984-5.0859-25.223 0.72656-6.8281 2.582-13.637 4.9922-20.078 3.1055-8.293 7.5508-17.023 13.293-25.785 10.594-16.164 25.629-32.5 44.809-46.449 35.461-25.793 85.117-43.461 147.11-36.855zm-131.62 390.47c2.1328 7.1758 5.9219 10.676 9.7383 11.477 3.0117 0.63281 5.9883-0.39062 8.1992-2.4727 3.6289-3.4102 5.2734-13.445 1.375-17.777-1.4141-1.5703-3.7969-2.3047-6.4141-2.3867-3.3359-0.10156-7.0625 0.83984-9.9102 2.5898-4.3477 2.6758-4.1445 4.6875-2.9922 8.5664zm0.42969-12.73c3.625-2.2305 8.3555-3.4258 12.605-3.2969 5.3438 0.16016 5.5312 2.6719 4.3828-2.6484-3.7578-17.402-7.1719-46.121 1.9492-81.027l-18.539-4.7109c-8.043 27.715-9.5703 62.418-4.0352 91.156 0.8125 4.2109 0.30078 2.582 3.6367 0.52734zm27.773-118.78c6.0508-5.8203 17.668-8.625 30.648-11.758 19.457-4.6953 42.191-10.184 51.086-27.258 2.2773-4.3672 1.7852-3.4766-2.6914-4.2734-2.1133-0.375-4.25-0.76953-6.4062-1.1719-4.4023-0.82812-2.7109-0.98438-5.0859 2.4883-6.9688 10.188-21.535 13.676-37.219 17.43-8.4375 2.0195-19.035 5.4531-27.258 6.6172-9 1.2734-13.973-0.82812-15.359-10.629-1.0234-7.2266-2.7773-14.586-4.7969-21.297-1.7227-5.7148-3.625-10.922-5.4336-15.152-1.9688-4.6094-1.4102-3.6328-6.168-5.1602-3.8906-1.25-7.6992-2.5117-11.406-3.7812-5.9844-2.0469-4.6016-2.0586-1.3984 2.4531 3.6172 5.0977 6.5742 10.965 8.9844 17.152 6.4844 16.645 9.0312 35.703 9.8945 48.203 0.30078 4.3867-0.62891 3.6602 3.5625 4.7266l12.703 3.2305c5.2422 1.332 2.9727 1.4258 6.3477-1.8164zm0.097656 8.5-24.152-6.1406c-12.492-3.1758-26.449 13.809-4.8203 19.309 5.4062 1.375 13.746 3.9102 20.84 5.543 2.6289 0.60547 5.0898 1.0859 7.1641 1.3359 17.203 2.0703 12.535-17.105 0.96875-20.043zm75.34 169.66c-1.1602-2.9805-3.7734-5.6797-6.4258-7.3984-9.7461-6.3281-19.77 1.75-18.492 10.84 1.2734 9.0664 12.191 8.9492 18.793 5.6797 3.7812-1.8711 8.0781-4.1094 6.125-9.1172zm-7.8359-13.578c1.4141 0.54297 2.7812 1.2539 4.0625 2.0859 3.5117 2.2812 6.7852 5.7773 8.3203 9.7109 1.2461 3.1992 0.0625 3.5625 3.6094 0.54688 9.6172-8.1758 17.559-18.371 24.535-28.758 11.203-16.555 19.148-33.836 23.02-45.973 1.2031-3.7734 1.8359-3.3711-1.6406-4.2539l-15.562-3.957c-3.3125-0.84375-2.3828-1.3594-3.7539 1.9883-3.5391 8.6484-8.5938 19.906-15.109 30.738-6.4648 10.664-14.172 21.176-22.488 29.363-1.6484 1.6211-3.2148 3.0234-4.7695 4.3359-4.6719 3.9453-4.5938 2.4805-0.22266 4.1641zm74.32-89.059-24.152-6.1406c-3.5977-0.91406-7.3008-0.21875-10.523 1.5078-8.4805 4.543-7.625 14.41 5.7031 17.797 8.3984 2.1328 18.84 5.5859 27.527 6.8164 10.414 1.4766 14.34-5.4141 10.391-12.723-1.9023-3.5234-4.9688-6.25-8.9414-7.2617zm9.3984-2.8906c9.832-20.762 37.719-41.469 59.02-57.523 4.9922-3.7656 9.6367-7.2695 13.602-10.422 5.4805-4.3633 2.8828-1.832-1.4258-5.5859-1.793-1.5625-3.4219-3.7461-4.7734-6.4688-2.3477-4.7344-0.65625-4.4219-4.9414-0.55859-4.25 3.8281-9.2383 7.1641-13.844 10.246-15.449 10.34-29.969 22.609-42.781 36.082-10.09 10.609-17.77 20.676-21.203 28.031-1.1641 2.4961-1.1562 1.9844 1.4375 2.6406l6.7148 1.707c2.0938 0.53125 3.9922 1.418 5.668 2.5547 2.0898 1.418 1.3711 1.7344 2.5234-0.70312zm-22.645-8.1406c0.13281-6.9844 0.49219-14.504 0.86719-22.328 1.1406-23.887 2.418-50.66-2.3398-75.879-0.80078-4.2422-0.015625-3.5859-4.1406-3.8438-3.832-0.24219-7.9102-0.59766-12.195-1.0625-4.9688-0.53906-3.5469-0.54688-2.457 4.793 5.918 29 6.1133 66.055 4.418 95.504-0.1875 3.2695-0.58203 2.293 2.4414 2.4219 1.2188 0.050781 2.457 0.22656 3.6992 0.54297l7.1445 1.8164c3.0273 0.76953 2.5 1.1406 2.5586-1.9648zm-30.734-305.34c-1.9141-0.20312-1.6055-3.1172 0.30859-2.9141 81.195 8.6523 139.25 52.582 140.82 138.58 0.03125 1.9219-2.8945 1.9688-2.9219 0.046875-1.543-84.484-58.512-127.22-138.2-135.71zm143.18 223.23c1.7227-5.5469-1.125-4.8086-4.9375-11.168-3.2773-5.4688-4.1367-10.84-5.0234-16.961-1.8906-13.043-4.5312-31.262-25.992-34.18-33.379-4.5391-44.082 20.199-74.141 17.414-55.527-5.1484-115.84-17.711-168.24-36.164-28.73-10.117-50.918-21.227-60.93-31.812-3.4609-3.6602-3.0742-5.5312-3.793 1.2109-0.96094 9.0352 0.39844 16.629 4.1875 21.84 4.3594 5.9922 18.121 13.301 37.141 20.84 17.582 6.9648 35.73 12.773 53.875 18.043 23.453 6.8125 48.586 13.008 71.953 17.695 20.609 4.1289 44.719 9.2227 65.484 8.707 23.027-0.57031 31.422-23.348 61.652-19.59 21.852 2.7188 24.383 23.023 26.199 37.559 0.44141 3.543 1.2227 7.8398 2.4258 11.148 2.5078 6.9023 7.3516 14.441 13.727 7.8359 3.1836-3.3008 5.3945-9.1641 6.4023-12.418zm-27.41-5.9766c-1.6172-12.953-3.875-31.051-21.938-33.297-26.598-3.3086-35.195 16.422-56.582 19.281-4.5742 0.60938-3.8359-0.58984-2.9453 4.3516 4.5742 25.363 3.3047 51.914 2.1719 75.652-0.21094 4.4531-0.42188 8.8008-0.58203 13.043-0.16016 4.1953-0.35156 3.4102 1.6484 0.29297 4.1562-6.4805 10.168-13.406 17.16-20.688 13.055-13.727 27.859-26.234 43.602-36.77 5.6875-3.8047 11.992-8.0195 16.395-12.895 3.0625-3.3906 1.6719-4.1719 1.0742-8.9688zm-153.68-23.355c-22.305-4.6016-45.965-10.492-68.113-16.926-2.0508-0.59766-4.0898-1.1953-6.1133-1.8008-5.0508-1.5078-3.8359-1.5078-1.9453 3.4375 1.2812 3.3516 2.5586 7.0625 3.7422 10.988 2.0781 6.8984 3.8867 14.5 4.9492 22.02 0.85156 6.0156 4.0469 7.2852 9.8555 6.4648 7.9062-1.1172 18.637-4.5664 26.797-6.5195 13.703-3.2812 26.488-6.3398 33.023-13.828 3.2383-3.7109 1.875-3-2.1914-3.8359zm-155.77-87.543c8.1602 9.7188 30.504 20.766 60.152 31.207 52.012 18.316 111.94 30.805 167.05 35.914 28.355 2.6289 39.203-22.172 74.348-17.395 25.117 3.4141 28.066 23.762 30.176 38.324 0.78125 5.3828 1.5 10.348 4.375 15.145 3.6836 6.1445 3.2109 2.7031 3.9688-2.2188 3.6992-23.98 5.75-52.531 5.3125-76.586-1.6367-89.734-62.125-135-146.75-144.01-60.613-6.457-109.11 10.781-143.73 35.957-18.668 13.578-33.293 29.461-43.586 45.168-5.4922 8.375-9.7422 16.688-12.715 24.555-2.2461 5.9414-3.418 8.207 1.3906 13.934z"/>
</svg>
